<?xml version="1.0" encoding="utf-8"?>
<!-- Generator: Adobe Illustrator 23.0.2, SVG Export Plug-In . SVG Version: 6.00 Build 0)  -->
<svg version="1.1" id="Layer_1" xmlns="http://www.w3.org/2000/svg" xmlns:xlink="http://www.w3.org/1999/xlink" x="0px" y="0px"
	 viewBox="0 0 30 30" style="enable-background:new 0 0 30 30;" xml:space="preserve">
<circle style="fill:#C4E213;" cx="15" cy="15" r="15"/>
<g>
	<path style="fill:#FFFFFF;" d="M15,14.8c1.8,0,3.2-1.7,3.2-3.9c0-2.1-0.5-3.9-3.2-3.9s-3.2,1.7-3.2,3.9
		C11.8,13.1,13.2,14.8,15,14.8z"/>
	<path style="fill:#FFFFFF;" d="M9,20.7C9,20.6,9,20.7,9,20.7L9,20.7z"/>
	<path style="fill:#FFFFFF;" d="M21,20.8C21,20.8,21,20.6,21,20.8L21,20.8z"/>
	<path style="fill:#FFFFFF;" d="M21,20.6c-0.1-3.7-0.5-4.8-4.3-5.5c0,0-0.5,0.7-1.7,0.7s-1.7-0.7-1.7-0.7c-3.7,0.7-4.2,1.7-4.3,5.3
		c0,0.3,0,0.3,0,0.3c0,0.1,0,0.2,0,0.4c0,0,0.9,1.8,6,1.8c5.1,0,6-1.8,6-1.8c0-0.1,0-0.2,0-0.3C21,20.9,21,20.8,21,20.6z"/>
</g>
</svg>
