<?xml version="1.0" encoding="utf-8"?>
<!-- Generator: Adobe Illustrator 23.0.2, SVG Export Plug-In . SVG Version: 6.00 Build 0)  -->
<svg version="1.1" id="Layer_1" xmlns="http://www.w3.org/2000/svg" xmlns:xlink="http://www.w3.org/1999/xlink" x="0px" y="0px"
	 viewBox="0 0 30 30" style="enable-background:new 0 0 30 30;" xml:space="preserve">
<circle style="fill:#C4E213;" cx="15" cy="15" r="15"/>
<g>
	<g>
		<g>
			<path style="fill:#FFFFFF;" d="M18.6,14.3c-0.1-0.2-0.2-0.3-0.4-0.3h-1.8v-6c0-0.3-0.2-0.5-0.5-0.5h-1.8c-0.3,0-0.5,0.2-0.5,0.5
				v6h-1.8c-0.2,0-0.3,0.1-0.4,0.3c-0.1,0.2,0,0.4,0.1,0.5l3.2,3.7c0.1,0.1,0.2,0.2,0.3,0.2s0.3-0.1,0.3-0.2l3.2-3.7
				C18.7,14.7,18.7,14.5,18.6,14.3z"/>
		</g>
	</g>
	<g>
		<g>
			<path style="fill:#FFFFFF;" d="M20.1,17.8v2.8H9.9v-2.8H8.1v3.7c0,0.5,0.4,0.9,0.9,0.9h12c0.5,0,0.9-0.4,0.9-0.9v-3.7H20.1z"/>
		</g>
	</g>
</g>
</svg>
