<?xml version="1.0" encoding="utf-8"?>
<!-- Generator: Adobe Illustrator 23.0.2, SVG Export Plug-In . SVG Version: 6.00 Build 0)  -->
<svg version="1.1" id="Layer_1" xmlns="http://www.w3.org/2000/svg" xmlns:xlink="http://www.w3.org/1999/xlink" x="0px" y="0px"
	 viewBox="0 0 30 30" style="enable-background:new 0 0 30 30;" xml:space="preserve">
<circle style="fill:#C4E213;" cx="82" cy="233" r="15"/>
<g>
	<path style="fill:#FFFFFF;" d="M83.6,228.6l2.7,2.7l-6.8,6.8l-2.7-2.7L83.6,228.6z M88.4,227.9l-1.2-1.2c-0.5-0.5-1.2-0.5-1.7,0
		l-1.2,1.2l2.7,2.7l1.3-1.3C88.7,228.9,88.7,228.3,88.4,227.9z M75.4,239.2c0,0.2,0.2,0.4,0.4,0.4l3-0.7l-2.7-2.7L75.4,239.2z"/>
</g>
<circle style="fill:#C4E213;" cx="15" cy="15" r="15"/>
<g>
	<path style="fill:#FFFFFF;" d="M16.6,10.6l2.7,2.7l-6.8,6.8l-2.7-2.7L16.6,10.6z M21.4,9.9l-1.2-1.2c-0.5-0.5-1.2-0.5-1.7,0
		l-1.2,1.2l2.7,2.7l1.3-1.3C21.7,10.9,21.7,10.3,21.4,9.9z M8.4,21.2c0,0.2,0.2,0.4,0.4,0.4l3-0.7L9,18.2L8.4,21.2z"/>
</g>
</svg>
