<?xml version="1.0" encoding="utf-8"?>
<!-- Generator: Adobe Illustrator 22.1.0, SVG Export Plug-In . SVG Version: 6.00 Build 0)  -->
<svg version="1.1" id="Layer_1" xmlns="http://www.w3.org/2000/svg" xmlns:xlink="http://www.w3.org/1999/xlink" x="0px" y="0px"
	 viewBox="0 0 30 30" style="enable-background:new 0 0 30 30;" xml:space="preserve">
<style type="text/css">
	.st0{fill:#C4E213;}
	.st1{fill:#FFFFFF;}
</style>
<circle class="st0" cx="15" cy="15" r="15"/>
<path class="st1" d="M13.6,6.5c-2.6,0-4.7,2.1-4.7,4.7c0,3.8,4.7,8.4,4.7,8.4s4.7-4.2,4.7-8.4C18.3,8.6,16.2,6.5,13.6,6.5z M13.6,14
	c-1.4,0-2.5-1.1-2.5-2.5s1.1-2.5,2.5-2.5s2.5,1.1,2.5,2.5C16.2,12.8,15,14,13.6,14z"/>
<g>
	<path class="st1" d="M20.8,15.1l2.4,2.4l-6,6L14.8,21L20.8,15.1z M25,14.5l-1.1-1.1c-0.4-0.4-1.1-0.4-1.5,0l-1.1,1.1l2.4,2.4
		l1.1-1.1C25.2,15.3,25.2,14.8,25,14.5z M13.6,24.4c0,0.2,0.2,0.4,0.4,0.4l2.6-0.6l-2.4-2.4L13.6,24.4z"/>
</g>
</svg>
