<?xml version="1.0" encoding="utf-8"?>
<!-- Generator: Adobe Illustrator 23.0.2, SVG Export Plug-In . SVG Version: 6.00 Build 0)  -->
<svg version="1.1" id="Layer_1" xmlns="http://www.w3.org/2000/svg" xmlns:xlink="http://www.w3.org/1999/xlink" x="0px" y="0px"
	 viewBox="0 0 30 30" style="enable-background:new 0 0 30 30;" xml:space="preserve">
<circle style="fill:#C4E213;" cx="81.7" cy="233.8" r="15"/>
<g>
	<path style="fill:#FFFFFF;" d="M83.3,229.4l2.7,2.7l-6.8,6.8l-2.7-2.7L83.3,229.4z M88.1,228.7l-1.2-1.2c-0.5-0.5-1.2-0.5-1.7,0
		l-1.2,1.2l2.7,2.7l1.3-1.3C88.4,229.7,88.4,229.1,88.1,228.7z M75.1,240c0,0.2,0.2,0.4,0.4,0.4l3-0.7l-2.7-2.7L75.1,240z"/>
</g>
<circle style="fill:#C4E213;" cx="15" cy="15" r="15"/>
<path style="fill:#FFFFFF;" d="M21.4,8.8c-0.1-0.1-0.2-0.1-0.3-0.1L7.7,14.9c-0.1,0-0.2,0.2-0.2,0.3c0,0.1,0.1,0.2,0.2,0.2l6,1
	l0.7,5.7c0,0.1,0.1,0.2,0.2,0.2c0,0,0,0,0,0c0.1,0,0.2-0.1,0.2-0.2l6.5-13.1C21.5,9,21.5,8.9,21.4,8.8z"/>
</svg>
