<?xml version="1.0" encoding="utf-8"?>
<!-- Generator: Adobe Illustrator 23.0.2, SVG Export Plug-In . SVG Version: 6.00 Build 0)  -->
<svg version="1.1" id="Layer_1" xmlns="http://www.w3.org/2000/svg" xmlns:xlink="http://www.w3.org/1999/xlink" x="0px" y="0px"
	 viewBox="0 0 30 30" style="enable-background:new 0 0 30 30;" xml:space="preserve">
<circle style="fill:#C4E213;" cx="82" cy="232.9" r="15"/>
<g>
	<path style="fill:#FFFFFF;" d="M83.6,228.5l2.7,2.7l-6.8,6.8l-2.7-2.7L83.6,228.5z M88.4,227.8l-1.2-1.2c-0.5-0.5-1.2-0.5-1.7,0
		l-1.2,1.2l2.7,2.7l1.3-1.3C88.7,228.8,88.7,228.2,88.4,227.8z M75.4,239.1c0,0.2,0.2,0.4,0.4,0.4l3-0.7l-2.7-2.7L75.4,239.1z"/>
</g>
<circle style="fill:#C4E213;" cx="15" cy="15" r="15"/>
<g>
	<path style="fill:#FFFFFF;" d="M15,13.5c1.1,0,2-1.1,2-2.4c0-1.3-0.3-2.4-2-2.4s-2,1.1-2,2.4C13,12.4,13.9,13.5,15,13.5z"/>
	<path style="fill:#FFFFFF;" d="M11.3,17.1C11.3,17,11.3,17.1,11.3,17.1L11.3,17.1z"/>
	<path style="fill:#FFFFFF;" d="M18.7,17.2C18.7,17.2,18.7,17,18.7,17.2L18.7,17.2z"/>
	<path style="fill:#FFFFFF;" d="M18.7,17c0-2.3-0.3-2.9-2.6-3.3c0,0-0.3,0.4-1.1,0.4s-1.1-0.4-1.1-0.4c-2.3,0.4-2.6,1-2.6,3.3
		c0,0.2,0,0.2,0,0.2c0,0,0,0.1,0,0.2c0,0,0.5,1.1,3.7,1.1c3.1,0,3.7-1.1,3.7-1.1c0-0.1,0-0.1,0-0.2C18.7,17.2,18.7,17.2,18.7,17z"/>
</g>
<rect x="9.2" y="20.4" style="fill:#FFFFFF;" width="11.7" height="0.8"/>
</svg>
