<?xml version="1.0" encoding="utf-8"?>
<!-- Generator: Adobe Illustrator 23.0.2, SVG Export Plug-In . SVG Version: 6.00 Build 0)  -->
<svg version="1.1" id="Layer_1" xmlns="http://www.w3.org/2000/svg" xmlns:xlink="http://www.w3.org/1999/xlink" x="0px" y="0px"
	 viewBox="0 0 30 30" style="enable-background:new 0 0 30 30;" xml:space="preserve">
<circle style="fill:#C4E213;" cx="81.3" cy="233.4" r="15"/>
<g>
	<path style="fill:#FFFFFF;" d="M82.9,229l2.7,2.7l-6.8,6.8l-2.7-2.7L82.9,229z M87.7,228.4l-1.2-1.2c-0.5-0.5-1.2-0.5-1.7,0
		l-1.2,1.2l2.7,2.7l1.3-1.3C88,229.3,88,228.7,87.7,228.4z M74.6,239.7c0,0.2,0.2,0.4,0.4,0.4l3-0.7l-2.7-2.7L74.6,239.7z"/>
</g>
<circle style="fill:#C4E213;" cx="15" cy="15" r="15"/>
<g>
	<path style="fill:#FFFFFF;" d="M15,10.6c-2.8,0-5.3,1.5-7.2,4c-0.2,0.2-0.2,0.5,0,0.7c1.9,2.5,4.4,4,7.2,4s5.3-1.5,7.2-4
		c0.2-0.2,0.2-0.5,0-0.7C20.3,12.2,17.8,10.6,15,10.6z M15.2,18.1c-1.9,0.1-3.4-1.4-3.3-3.3c0.1-1.5,1.3-2.8,2.9-2.9
		c1.9-0.1,3.4,1.4,3.3,3.3C18,16.7,16.7,18,15.2,18.1z M15.1,16.7c-1,0.1-1.8-0.8-1.8-1.8c0.1-0.8,0.7-1.5,1.5-1.5
		c1-0.1,1.8,0.8,1.8,1.8C16.6,15.9,15.9,16.6,15.1,16.7z"/>
</g>
</svg>
