<?xml version="1.0" encoding="utf-8"?>
<!-- Generator: Adobe Illustrator 23.0.2, SVG Export Plug-In . SVG Version: 6.00 Build 0)  -->
<svg version="1.1" id="Layer_1" xmlns="http://www.w3.org/2000/svg" xmlns:xlink="http://www.w3.org/1999/xlink" x="0px" y="0px"
	 viewBox="0 0 30 30" style="enable-background:new 0 0 30 30;" xml:space="preserve">
<circle style="fill:#C4E213;" cx="80.9" cy="233.7" r="15"/>
<g>
	<path style="fill:#FFFFFF;" d="M82.5,229.3l2.7,2.7l-6.8,6.8l-2.7-2.7L82.5,229.3z M87.2,228.7l-1.2-1.2c-0.5-0.5-1.2-0.5-1.7,0
		l-1.2,1.2l2.7,2.7l1.3-1.3C87.6,229.6,87.6,229,87.2,228.7z M74.2,240c0,0.2,0.2,0.4,0.4,0.4l3-0.7l-2.7-2.7L74.2,240z"/>
</g>
<circle style="fill:#C4E213;" cx="15" cy="15" r="15"/>
<g>
	<path style="fill:#FFFFFF;" d="M23,10.6v4.9c0,0-1,0.2-1.3,0.2c-0.2,0-0.9,0.2-1.4-0.2c-0.7-0.7-3.4-3.4-3.4-3.4s-0.5-0.5-1.2-0.1
		c-0.7,0.4-1.7,0.9-2.1,1.1c-0.8,0.4-1.4-0.2-1.4-0.8c0-0.4,0.2-0.7,0.6-0.9c1-0.6,3-1.7,3.8-2.2c0.5-0.3,0.9-0.3,1.6,0.3
		c0.9,0.7,1.6,1.4,1.6,1.4s0.3,0.2,0.6,0.1C21.5,11,23,10.6,23,10.6z M12.4,18.9c0.1-0.3,0.1-0.7-0.2-1c-0.2-0.2-0.5-0.3-0.9-0.2
		c0.1-0.3,0-0.6-0.2-0.9c-0.2-0.2-0.5-0.3-0.9-0.2c0.1-0.3,0-0.6-0.2-0.9c-0.3-0.4-1-0.3-1.4,0c-0.4,0.4-0.6,1.1-0.3,1.5
		c0.4,0.4,0.8,0.2,1.1,0.1c-0.1,0.3-0.3,0.6,0,1c0.3,0.4,0.8,0.2,1.1,0.1c-0.1,0.3-0.3,0.6,0,1c0.3,0.4,0.8,0.2,1.1,0.1
		c-0.1,0.3-0.4,0.7-0.1,1.1c0.4,0.4,1.2,0.2,1.6-0.2c0.4-0.4,0.4-1,0.1-1.3C13.1,18.8,12.8,18.8,12.4,18.9z M19.7,16.3
		c-2.9-2.9-1.5-1.5-3.1-3.1c0,0-0.5-0.5-1.1-0.2c-0.4,0.2-1,0.4-1.4,0.6C13.7,14,13.3,14,13.2,14c-0.9,0-1.6-0.7-1.6-1.6
		c0-0.6,0.3-1.1,0.8-1.4c0.6-0.4,2.1-1.2,2.1-1.2S14,9.3,13,9.3c-1,0-3,1.3-3,1.3s-0.6,0.4-1.4,0L7,10.1v5.6c0,0,0.5,0.1,0.9,0.3
		c0.1-0.3,0.2-0.5,0.4-0.7c0.7-0.6,1.8-0.7,2.4,0c0.2,0.2,0.3,0.4,0.4,0.7c0.2,0.1,0.5,0.2,0.7,0.4c0.2,0.2,0.3,0.4,0.4,0.7
		c0.2,0.1,0.5,0.2,0.7,0.4c0.2,0.2,0.3,0.5,0.4,0.7c0.3,0.1,0.5,0.2,0.7,0.4c0.4,0.4,0.5,0.9,0.4,1.4c0,0,0,0,0,0
		c0,0,0.2,0.3,0.4,0.4c0.3,0.3,0.7,0.3,1,0c0.3-0.3,0.3-0.7,0-1c0,0-1-1-0.9-1.1c0.1-0.1,1.3,1.2,1.3,1.2c0.3,0.3,0.7,0.3,1,0
		c0.3-0.3,0.3-0.7,0-1c0,0-0.1-0.1-0.1-0.1c0,0-1.2-1.1-1.1-1.2c0.1-0.1,1.6,1.3,1.6,1.3c0.3,0.2,0.7,0.2,1,0c0.3-0.3,0.3-0.7,0-0.9
		c0,0-1.2-1.2-1.1-1.3c0.1-0.1,1.2,1.1,1.2,1.1c0.3,0.3,0.7,0.3,1,0C20,17.1,20,16.6,19.7,16.3C19.7,16.3,19.7,16.3,19.7,16.3z"/>
</g>
</svg>
