<?xml version="1.0" encoding="utf-8"?>
<!-- Generator: Adobe Illustrator 23.0.2, SVG Export Plug-In . SVG Version: 6.00 Build 0)  -->
<svg version="1.1" id="Layer_1" xmlns="http://www.w3.org/2000/svg" xmlns:xlink="http://www.w3.org/1999/xlink" x="0px" y="0px"
	 viewBox="0 0 30 30" style="enable-background:new 0 0 30 30;" xml:space="preserve">
<circle style="fill:#C4E213;" cx="82" cy="234.1" r="15"/>
<g>
	<path style="fill:#FFFFFF;" d="M83.7,229.7l2.7,2.7l-6.8,6.8l-2.7-2.7L83.7,229.7z M88.4,229l-1.2-1.2c-0.5-0.5-1.2-0.5-1.7,0
		l-1.2,1.2l2.7,2.7l1.3-1.3C88.8,230,88.8,229.4,88.4,229z M75.4,240.3c0,0.2,0.2,0.4,0.4,0.4l3-0.7l-2.7-2.7L75.4,240.3z"/>
</g>
<circle style="fill:#FF9100;" cx="15" cy="15" r="15"/>
<g>
	<path style="fill:#FFFFFF;" d="M21.6,21.7H8.4v-9.4h13.2V21.7z M9.2,20.9h11.6V13H9.2V20.9z"/>
</g>
<rect x="8.4" y="8.3" style="fill:#FFFFFF;" width="13.2" height="2.9"/>
</svg>
