<?xml version="1.0" encoding="utf-8"?>
<!-- Generator: Adobe Illustrator 23.0.2, SVG Export Plug-In . SVG Version: 6.00 Build 0)  -->
<svg version="1.1" id="Layer_1" xmlns="http://www.w3.org/2000/svg" xmlns:xlink="http://www.w3.org/1999/xlink" x="0px" y="0px"
	 viewBox="0 0 30 30" style="enable-background:new 0 0 30 30;" xml:space="preserve">
<circle style="fill:#C4E213;" cx="81.6" cy="234.1" r="15"/>
<g>
	<path style="fill:#FFFFFF;" d="M83.2,229.7l2.7,2.7l-6.8,6.8l-2.7-2.7L83.2,229.7z M88,229.1l-1.2-1.2c-0.5-0.5-1.2-0.5-1.7,0
		l-1.2,1.2l2.7,2.7l1.3-1.3C88.3,230,88.3,229.4,88,229.1z M75,240.4c0,0.2,0.2,0.4,0.4,0.4l3-0.7l-2.7-2.7L75,240.4z"/>
</g>
<circle style="fill:#FF9100;" cx="15" cy="15" r="15"/>
<g>
	<g>
		<g>
			<rect x="13.3" y="13.3" style="fill:#F1F5F9;" width="3.3" height="3.3"/>
			<rect x="8.3" y="8.3" style="fill:#F1F5F9;" width="3.3" height="3.3"/>
			<rect x="13.3" y="18.3" style="fill:#F1F5F9;" width="3.3" height="3.3"/>
			<rect x="8.3" y="13.3" style="fill:#F1F5F9;" width="3.3" height="3.3"/>
			<rect x="8.3" y="18.3" style="fill:#F1F5F9;" width="3.3" height="3.3"/>
			<rect x="18.3" y="8.3" style="fill:#F1F5F9;" width="3.3" height="3.3"/>
			<rect x="13.3" y="8.3" style="fill:#F1F5F9;" width="3.3" height="3.3"/>
			<rect x="18.3" y="13.3" style="fill:#F1F5F9;" width="3.3" height="3.3"/>
			<rect x="18.3" y="18.3" style="fill:#F1F5F9;" width="3.3" height="3.3"/>
		</g>
	</g>
</g>
</svg>
