<?xml version="1.0" encoding="utf-8"?>
<!-- Generator: Adobe Illustrator 24.1.1, SVG Export Plug-In . SVG Version: 6.00 Build 0)  -->
<svg version="1.1" id="Layer_1" xmlns="http://www.w3.org/2000/svg" xmlns:xlink="http://www.w3.org/1999/xlink" x="0px" y="0px"
	 viewBox="0 0 30 30" style="enable-background:new 0 0 30 30;" xml:space="preserve">
<style type="text/css">
	.st0{fill:#4C4C4C;}
	.st1{fill:#FFFFFF;}
</style>
<circle class="st0" cx="15" cy="15" r="15"/>
<g>
	<path class="st1" d="M11.9,21.2c0.5,0.5,1.2,0.5,1.7,0l5.7-5.7c0.2-0.2,0.3-0.4,0.4-0.6c0.6,0.2,1.1,0.2,1.6,0.2
		c1.2,0,1.6-0.5,1.8-0.9c0.1-0.3,0.2-1-0.6-1.9l0,0c-0.5-0.5-1.3-1-2.2-1.4c-0.2-0.1-0.3-0.1-0.5-0.2l0,0c0-0.7-0.6-1.3-1.3-1.3
		h-3.4c-0.5,0-0.9,0.2-1.2,0.5l-5.7,5.7c-0.5,0.5-0.5,1.2,0,1.7L11.9,21.2z M16.3,11.6c0.4-0.4,1-0.4,1.4,0c0.2,0.2,0.3,0.5,0.3,0.8
		c0.4,0.3,0.8,0.5,1.3,0.7c0.2,0.1,0.3,0.1,0.5,0.2v-1.4h0.1c0.7,0.3,1.4,0.7,1.9,1.2l0,0c0.4,0.4,0.5,0.7,0.4,0.8
		c-0.1,0.3-1.3,0.5-3-0.2c-0.5-0.2-1-0.5-1.4-0.8l0,0c-0.4,0.4-1,0.4-1.4,0C15.9,12.6,15.9,11.9,16.3,11.6z"/>
</g>
</svg>
