<?xml version="1.0" encoding="utf-8"?>
<!-- Generator: Adobe Illustrator 23.0.2, SVG Export Plug-In . SVG Version: 6.00 Build 0)  -->
<svg version="1.1" id="Layer_1" xmlns="http://www.w3.org/2000/svg" xmlns:xlink="http://www.w3.org/1999/xlink" x="0px" y="0px"
	 viewBox="0 0 30 30" style="enable-background:new 0 0 30 30;" xml:space="preserve">
<circle style="fill:#C4E213;" cx="81.9" cy="233.6" r="15"/>
<g>
	<path style="fill:#FFFFFF;" d="M83.6,229.2l2.7,2.7l-6.8,6.8l-2.7-2.7L83.6,229.2z M88.3,228.6l-1.2-1.2c-0.5-0.5-1.2-0.5-1.7,0
		l-1.2,1.2l2.7,2.7l1.3-1.3C88.7,229.5,88.7,228.9,88.3,228.6z M75.3,239.9c0,0.2,0.2,0.4,0.4,0.4l3-0.7l-2.7-2.7L75.3,239.9z"/>
</g>
<circle style="fill:#A456E8;" cx="15" cy="15" r="15"/>
<path style="fill:#FFFFFF;" d="M20.2,14.8h-1.7V9.2c0-0.1-0.1-0.2-0.1-0.2c-0.1,0-0.2,0-0.3,0.1l-0.7,0.7L16.7,9
	c-0.1-0.1-0.2-0.1-0.3,0l-0.7,0.7L15,9c-0.1-0.1-0.2-0.1-0.3,0L14,9.7L13.3,9c-0.1-0.1-0.2-0.1-0.3,0l-0.7,0.7L11.7,9
	c-0.1-0.1-0.2-0.1-0.3,0l-0.7,0.7L10,9C9.9,8.9,9.8,8.9,9.7,9c0,0-0.1,0.1-0.1,0.2v10.6c0,0.7,0.6,1.2,1.2,1.2h8.4l0,0c0,0,0,0,0,0
	c0.7,0,1.2-0.6,1.2-1.2V15C20.4,14.9,20.3,14.8,20.2,14.8z M16.5,14.4l-0.2,0.2c-0.1,0.1-0.1,0.1-0.2,0.1s-0.2,0-0.2-0.1l-1.1-1.1
	V17c0,0,0,0,0,0l0,0v0c0,0.2-0.1,0.3-0.3,0.3h-0.2c-0.2,0-0.3-0.1-0.3-0.3v-3.6l-1.1,1.1c-0.1,0.1-0.1,0.1-0.2,0.1s-0.2,0-0.2-0.1
	l-0.2-0.2c-0.1-0.1-0.1-0.1-0.1-0.2c0-0.1,0-0.2,0.1-0.2l1.9-1.9c0.1-0.1,0.1-0.1,0.2-0.1c0.1,0,0.2,0,0.2,0.1l1.9,1.9
	c0.1,0.1,0.1,0.1,0.1,0.2S16.5,14.3,16.5,14.4z M19.9,19.8c0,0.4-0.3,0.8-0.8,0.8c-0.4,0-0.8-0.3-0.8-0.8v-4.6h1.5V19.8z"/>
</svg>
