<?xml version="1.0" encoding="utf-8"?>
<!-- Generator: Adobe Illustrator 23.0.2, SVG Export Plug-In . SVG Version: 6.00 Build 0)  -->
<svg version="1.1" id="Layer_1" xmlns="http://www.w3.org/2000/svg" xmlns:xlink="http://www.w3.org/1999/xlink" x="0px" y="0px"
	 viewBox="0 0 30 30" style="enable-background:new 0 0 30 30;" xml:space="preserve">
<circle style="fill:#C4E213;" cx="81" cy="233.4" r="15"/>
<g>
	<path style="fill:#FFFFFF;" d="M82.7,228.9l2.7,2.7l-6.8,6.8l-2.7-2.7L82.7,228.9z M87.4,228.3l-1.2-1.2c-0.5-0.5-1.2-0.5-1.7,0
		l-1.2,1.2l2.7,2.7l1.3-1.3C87.8,229.2,87.8,228.7,87.4,228.3z M74.4,239.6c0,0.2,0.2,0.4,0.4,0.4l3-0.7l-2.7-2.7L74.4,239.6z"/>
</g>
<circle style="fill:#A456E8;" cx="15" cy="15" r="15"/>
<path style="fill:#FFFFFF;" d="M19.7,12c0-0.1-0.1-0.2-0.2-0.2h-1.9v-1c0-1.3-1.1-2.4-2.4-2.4s-2.4,1.1-2.4,2.4v1H11
	c-0.1,0-0.2,0.1-0.2,0.2l-0.4,9.4c0,0.1,0,0.1,0.1,0.1c0,0,0.1,0.1,0.1,0.1H20c0.1,0,0.1,0,0.1-0.1c0,0,0.1-0.1,0.1-0.1L19.7,12z
	 M13.3,10.8c0-1.1,0.9-2,2-2s2,0.9,2,2v1h-3.9V10.8z"/>
</svg>
