<?xml version="1.0" encoding="utf-8"?>
<!-- Generator: Adobe Illustrator 23.0.2, SVG Export Plug-In . SVG Version: 6.00 Build 0)  -->
<svg version="1.1" id="Layer_1" xmlns="http://www.w3.org/2000/svg" xmlns:xlink="http://www.w3.org/1999/xlink" x="0px" y="0px"
	 viewBox="0 0 30 30" style="enable-background:new 0 0 30 30;" xml:space="preserve">
<circle style="fill:#C4E213;" cx="80.7" cy="233.6" r="15"/>
<g>
	<path style="fill:#FFFFFF;" d="M82.4,229.2l2.7,2.7l-6.8,6.8l-2.7-2.7L82.4,229.2z M87.1,228.5l-1.2-1.2c-0.5-0.5-1.2-0.5-1.7,0
		l-1.2,1.2l2.7,2.7l1.3-1.3C87.5,229.5,87.5,228.9,87.1,228.5z M74.1,239.8c0,0.2,0.2,0.4,0.4,0.4l3-0.7l-2.7-2.7L74.1,239.8z"/>
</g>
<circle style="fill:#A456E8;" cx="15" cy="15" r="15"/>
<g>
	<path style="fill:#FFFFFF;" d="M12.4,13.7c1.2,0,2.1-1.2,2.1-2.6s-0.3-2.6-2.1-2.6s-2.1,1.2-2.1,2.6S11.2,13.7,12.4,13.7z"/>
	<path style="fill:#FFFFFF;" d="M16.4,17.6C16.4,17.6,16.4,17.5,16.4,17.6L16.4,17.6z"/>
	<path style="fill:#FFFFFF;" d="M12.4,14.9h3.4c-0.4-0.5-1.1-0.8-2.3-1c0,0-0.3,0.4-1.2,0.4s-1.2-0.4-1.2-0.4
		c-2.4,0.4-2.8,1.1-2.8,3.5c0,0.2,0,0.2,0,0.2c0,0,0,0.1,0,0.3c0,0,0.6,1.2,4,1.2c1.6,0,2.5-0.3,3.1-0.5h-3.1v-0.7h4l0,0
		c0-0.1,0-0.2,0-0.2c0,0,0,0,0-0.2c0-0.8-0.1-1.5-0.2-2h-3.8V14.9z"/>
	<path style="fill:#FFFFFF;" d="M21.6,14.9h-5.9c0.1,0.2,0.3,0.4,0.3,0.7h5.5V14.9z"/>
	<path style="fill:#FFFFFF;" d="M15.5,18.5h6.2v-0.7h-5.3C16.4,17.8,16.2,18.2,15.5,18.5z"/>
	<rect x="12.4" y="20.8" style="fill:#FFFFFF;" width="9.3" height="0.7"/>
</g>
</svg>
