<?xml version="1.0" encoding="utf-8"?>
<!-- Generator: Adobe Illustrator 23.0.2, SVG Export Plug-In . SVG Version: 6.00 Build 0)  -->
<svg version="1.1" id="Layer_1" xmlns="http://www.w3.org/2000/svg" xmlns:xlink="http://www.w3.org/1999/xlink" x="0px" y="0px"
	 viewBox="0 0 30 30" style="enable-background:new 0 0 30 30;" xml:space="preserve">
<circle style="fill:#C4E213;" cx="82.4" cy="233" r="15"/>
<g>
	<path style="fill:#FFFFFF;" d="M84.1,228.5l2.7,2.7l-6.8,6.8l-2.7-2.7L84.1,228.5z M88.8,227.9l-1.2-1.2c-0.5-0.5-1.2-0.5-1.7,0
		l-1.2,1.2l2.7,2.7l1.3-1.3C89.2,228.8,89.2,228.3,88.8,227.9z M75.8,239.2c0,0.2,0.2,0.4,0.4,0.4l3-0.7l-2.7-2.7L75.8,239.2z"/>
</g>
<circle style="fill:#A456E8;" cx="15" cy="15" r="15"/>
<g>
	<g>
		<polygon style="fill:#FFFFFF;" points="16.3,15.1 15.6,15.5 15.6,22.8 21.9,19.1 21.9,11.8 		"/>
		<polygon style="fill:#FFFFFF;" points="17.4,8.5 15,7.1 8.5,10.8 10.9,12.2 		"/>
		<polygon style="fill:#FFFFFF;" points="21.5,10.8 18.7,9.2 12.2,13 12.5,13.2 15,14.6 17.4,13.2 		"/>
		<polygon style="fill:#FFFFFF;" points="11.7,15.7 10.5,15.1 10.5,13.2 8.1,11.8 8.1,19.1 14.4,22.8 14.4,15.5 11.7,13.9 		"/>
	</g>
</g>
</svg>
