<?xml version="1.0" encoding="utf-8"?>
<!-- Generator: Adobe Illustrator 22.1.0, SVG Export Plug-In . SVG Version: 6.00 Build 0)  -->
<svg version="1.1" id="Layer_1" xmlns="http://www.w3.org/2000/svg" xmlns:xlink="http://www.w3.org/1999/xlink" x="0px" y="0px"
	 viewBox="0 0 30 30" style="enable-background:new 0 0 30 30;" xml:space="preserve">
<style type="text/css">
	.st0{fill:#A456E8;}
	.st1{fill:#F1F5F9;}
</style>
<circle class="st0" cx="15" cy="15" r="15"/>
<path class="st1" d="M20.4,14.8h-1.7V9.2c0-0.1-0.1-0.2-0.1-0.2c-0.1,0-0.2,0-0.3,0.1l-0.7,0.7L17,9c-0.1-0.1-0.2-0.1-0.3,0L16,9.7
	L15.3,9c-0.1-0.1-0.2-0.1-0.3,0l-0.7,0.7L13.6,9c-0.1-0.1-0.2-0.1-0.3,0l-0.7,0.7L11.9,9c-0.1-0.1-0.2-0.1-0.3,0l-0.7,0.7L10.3,9
	C10.2,8.9,10,8.9,9.9,9c0,0-0.1,0.1-0.1,0.2v10.6c0,0.7,0.6,1.2,1.2,1.2h8.4l0,0l0,0c0.7,0,1.2-0.6,1.2-1.2V15
	C20.7,14.9,20.6,14.8,20.4,14.8z M17.4,19.9h-6.2v-0.4h6.2V19.9z M17.4,17.9h-6.2v-0.4h6.2V17.9z M17.4,15.9h-6.2v-0.4h6.2V15.9z
	 M17.4,13.9h-6.2v-0.4h6.2V13.9z M17.4,11.9h-6.2v-0.4h6.2V11.9z M20.2,19.8c0,0.4-0.3,0.8-0.8,0.8c-0.4,0-0.8-0.3-0.8-0.8v-4.6h1.5
	L20.2,19.8L20.2,19.8z"/>
</svg>
