<?xml version="1.0" encoding="utf-8"?>
<!-- Generator: Adobe Illustrator 22.1.0, SVG Export Plug-In . SVG Version: 6.00 Build 0)  -->
<svg version="1.1" id="Layer_1" xmlns="http://www.w3.org/2000/svg" xmlns:xlink="http://www.w3.org/1999/xlink" x="0px" y="0px"
	 viewBox="0 0 30 30" style="enable-background:new 0 0 30 30;" xml:space="preserve">
<style type="text/css">
	.st0{fill:#A456E8;}
	.st1{fill:#FCFCFC;}
</style>
<circle class="st0" cx="15" cy="15" r="15"/>
<g>
	<g>
		<path class="st1" d="M21.1,13.9l0.3-0.1V11h-3.5v1.4h-0.8V11H8.6v2.8l0.3,0.1C9.4,14,9.8,14.4,9.8,15c0,0.6-0.4,1-0.9,1.1
			l-0.3,0.1V19h8.6v-1.4h0.8V19h3.5v-2.8l-0.3-0.1c-0.5-0.1-0.9-0.6-0.9-1.1S20.6,14,21.1,13.9z M17.9,16.9h-0.8v-1.5h0.8V16.9z
			 M17.9,14.6h-0.8v-1.5h0.8V14.6z"/>
	</g>
</g>
</svg>
