<?xml version="1.0" encoding="utf-8"?>
<!-- Generator: Adobe Illustrator 23.0.2, SVG Export Plug-In . SVG Version: 6.00 Build 0)  -->
<svg version="1.1" id="Layer_1" xmlns="http://www.w3.org/2000/svg" xmlns:xlink="http://www.w3.org/1999/xlink" x="0px" y="0px"
	 viewBox="0 0 30 30" style="enable-background:new 0 0 30 30;" xml:space="preserve">
<circle style="fill:#C4E213;" cx="81.7" cy="232.7" r="15"/>
<g>
	<path style="fill:#FFFFFF;" d="M83.4,228.2l2.7,2.7l-6.8,6.8l-2.7-2.7L83.4,228.2z M88.1,227.6l-1.2-1.2c-0.5-0.5-1.2-0.5-1.7,0
		l-1.2,1.2l2.7,2.7l1.3-1.3C88.5,228.5,88.5,228,88.1,227.6z M75.1,238.9c0,0.2,0.2,0.4,0.4,0.4l3-0.7l-2.7-2.7L75.1,238.9z"/>
</g>
<circle style="fill:#A456E8;" cx="15" cy="15" r="15"/>
<g>
	<g>
		<path style="fill:#FFFFFF;" d="M12,16c0.4,0,0.8,0,1.2-0.1v-4.1c-0.4,0-0.8-0.1-1.2-0.1c-2.3,0-4.2,0.8-4.2,1.9v0.4
			C7.8,15.2,9.7,16,12,16z"/>
		<path style="fill:#FFFFFF;" d="M12,18.1c0.4,0,0.8,0,1.2-0.1v-1.2c-0.4,0-0.8,0.1-1.2,0.1c-2,0-3.7-0.6-4.1-1.5
			c-0.1,0.1-0.1,0.3-0.1,0.4v0.4C7.8,17.3,9.7,18.1,12,18.1z"/>
		<path style="fill:#FFFFFF;" d="M13.2,19.1L13.2,19.1c-0.4,0-0.8,0-1.2,0c-2,0-3.7-0.6-4.1-1.5c-0.1,0.1-0.1,0.3-0.1,0.4v0.4
			c0,1,1.9,1.9,4.2,1.9c0.5,0,0.9,0,1.3-0.1c-0.1-0.2-0.2-0.4-0.2-0.7V19.1z"/>
		<path style="fill:#FFFFFF;" d="M18,8.6c-2.3,0-4.2,0.8-4.2,1.9v0.4c0,1,1.9,1.9,4.2,1.9c2.3,0,4.2-0.8,4.2-1.9v-0.4
			C22.2,9.5,20.3,8.6,18,8.6z"/>
		<path style="fill:#FFFFFF;" d="M18,13.7c-2,0-3.7-0.6-4.1-1.5c-0.1,0.1-0.1,0.3-0.1,0.4V13c0,1,1.9,1.9,4.2,1.9
			c2.3,0,4.2-0.8,4.2-1.9v-0.4c0-0.1,0-0.3-0.1-0.4C21.7,13.1,20,13.7,18,13.7z"/>
		<path style="fill:#FFFFFF;" d="M18,15.9c-2,0-3.7-0.6-4.1-1.5c-0.1,0.1-0.1,0.3-0.1,0.4v0.4c0,1,1.9,1.9,4.2,1.9
			c2.3,0,4.2-0.8,4.2-1.9v-0.4c0-0.1,0-0.3-0.1-0.4C21.7,15.2,20,15.9,18,15.9z"/>
		<path style="fill:#FFFFFF;" d="M18,18.1c-2,0-3.7-0.6-4.1-1.5c-0.1,0.1-0.1,0.3-0.1,0.4v0.4c0,1,1.9,1.9,4.2,1.9
			c2.3,0,4.2-0.8,4.2-1.9V17c0-0.1,0-0.3-0.1-0.4C21.7,17.4,20,18.1,18,18.1z"/>
		<path style="fill:#FFFFFF;" d="M18,20.2c-2,0-3.7-0.6-4.1-1.5c-0.1,0.1-0.1,0.3-0.1,0.4v0.4c0,1,1.9,1.9,4.2,1.9
			c2.3,0,4.2-0.8,4.2-1.9v-0.4c0-0.1,0-0.3-0.1-0.4C21.7,19.6,20,20.2,18,20.2z"/>
	</g>
</g>
</svg>
