<?xml version="1.0" encoding="utf-8"?>
<!-- Generator: Adobe Illustrator 23.0.2, SVG Export Plug-In . SVG Version: 6.00 Build 0)  -->
<svg version="1.1" id="Layer_1" xmlns="http://www.w3.org/2000/svg" xmlns:xlink="http://www.w3.org/1999/xlink" x="0px" y="0px"
	 viewBox="0 0 29.9 29.9" style="enable-background:new 0 0 29.9 29.9;" xml:space="preserve">
<g>
	<circle style="fill:#0AF2A5;" cx="14.9" cy="14.9" r="14.9"/>
	<path style="fill:#0CEF52;" d="M25.5,4.4c5.8,5.8,5.8,15.3,0,21.1s-15.3,5.8-21.1,0"/>
</g>
<g>
	<path style="fill:#FFFFFF;" d="M14.8,13.4c1.1,0,2-1.1,2-2.4c0-1.3-0.3-2.4-2-2.4s-2,1.1-2,2.4C12.9,12.4,13.7,13.4,14.8,13.4z"/>
	<path style="fill:#FFFFFF;" d="M11.1,17.1C11.1,17,11.1,17,11.1,17.1L11.1,17.1z"/>
	<path style="fill:#FFFFFF;" d="M18.5,17.1C18.5,17.1,18.5,17,18.5,17.1L18.5,17.1z"/>
	<path style="fill:#FFFFFF;" d="M18.5,17c0-2.3-0.3-2.9-2.6-3.3c0,0-0.3,0.4-1.1,0.4s-1.1-0.4-1.1-0.4c-2.3,0.4-2.6,1-2.6,3.3
		c0,0.2,0,0.2,0,0.2c0,0,0,0.1,0,0.2c0,0,0.5,1.1,3.7,1.1c3.1,0,3.7-1.1,3.7-1.1c0-0.1,0-0.1,0-0.2C18.5,17.1,18.5,17.1,18.5,17z"/>
</g>
<rect x="9" y="20.3" style="fill:#FFFFFF;" width="11.7" height="0.8"/>
</svg>
