<?xml version="1.0" encoding="utf-8"?>
<!-- Generator: Adobe Illustrator 23.0.2, SVG Export Plug-In . SVG Version: 6.00 Build 0)  -->
<svg version="1.1" id="Layer_1" xmlns="http://www.w3.org/2000/svg" xmlns:xlink="http://www.w3.org/1999/xlink" x="0px" y="0px"
	 viewBox="0 0 30 30" style="enable-background:new 0 0 30 30;" xml:space="preserve">
<circle style="fill:#C4E213;" cx="81.3" cy="233.8" r="15"/>
<g>
	<path style="fill:#FFFFFF;" d="M82.9,229.4l2.7,2.7l-6.8,6.8l-2.7-2.7L82.9,229.4z M87.7,228.8l-1.2-1.2c-0.5-0.5-1.2-0.5-1.7,0
		l-1.2,1.2l2.7,2.7l1.3-1.3C88.1,229.7,88.1,229.1,87.7,228.8z M74.7,240.1c0,0.2,0.2,0.4,0.4,0.4l3-0.7l-2.7-2.7L74.7,240.1z"/>
</g>
<circle style="fill:#0CEF52;" cx="15" cy="15" r="15"/>
<g>
	<g>
		<path style="fill:#FFFFFF;" d="M18.7,20.2c0,0.3,0.1,0.5,0.3,0.7c0.2,0.2,0.5,0.3,0.7,0.3c0.3,0,0.5-0.1,0.7-0.3
			c0.2-0.2,0.3-0.5,0.3-0.7s-0.1-0.5-0.3-0.7c-0.2-0.2-0.5-0.3-0.7-0.3c-0.3,0-0.5,0.1-0.7,0.3C18.8,19.6,18.7,19.9,18.7,20.2z"/>
		<path style="fill:#FFFFFF;" d="M21.7,10.9c-0.1-0.1-0.2-0.2-0.4-0.2h-9.8c0,0,0-0.1,0-0.2c0-0.1,0-0.2,0-0.2c0-0.1,0-0.1-0.1-0.2
			c0-0.1-0.1-0.2-0.1-0.2c0,0-0.1-0.1-0.2-0.1c-0.1,0-0.1-0.1-0.2-0.1H8.7c-0.1,0-0.3,0.1-0.4,0.2c-0.1,0.1-0.2,0.2-0.2,0.4
			s0.1,0.3,0.2,0.4c0.1,0.1,0.2,0.2,0.4,0.2h1.7l1.5,6.7c0,0-0.1,0.1-0.2,0.3c-0.1,0.2-0.2,0.3-0.2,0.5c-0.1,0.1-0.1,0.2-0.1,0.3
			c0,0.1,0.1,0.3,0.2,0.4c0.1,0.1,0.2,0.2,0.4,0.2h0.5h7.3h0.5c0.1,0,0.3-0.1,0.4-0.2c0.1-0.1,0.2-0.2,0.2-0.4
			c0-0.1-0.1-0.3-0.2-0.4c-0.1-0.1-0.2-0.2-0.4-0.2h-7.5c0.1-0.3,0.2-0.4,0.2-0.5c0-0.1,0-0.1,0-0.2c0-0.1,0-0.1,0-0.2
			c0-0.1,0-0.1,0-0.2l8.6-1c0.1,0,0.2-0.1,0.3-0.2c0.1-0.1,0.1-0.2,0.1-0.3v-4.2C21.8,11.1,21.8,11,21.7,10.9z"/>
		<path style="fill:#FFFFFF;" d="M11.3,20.2c0,0.3,0.1,0.5,0.3,0.7c0.2,0.2,0.5,0.3,0.7,0.3c0.3,0,0.5-0.1,0.7-0.3
			c0.2-0.2,0.3-0.5,0.3-0.7s-0.1-0.5-0.3-0.7c-0.2-0.2-0.5-0.3-0.7-0.3c-0.3,0-0.5,0.1-0.7,0.3C11.4,19.6,11.3,19.9,11.3,20.2z"/>
	</g>
</g>
</svg>
