<?xml version="1.0" encoding="utf-8"?>
<!-- Generator: Adobe Illustrator 23.0.2, SVG Export Plug-In . SVG Version: 6.00 Build 0)  -->
<svg version="1.1" id="Layer_1" xmlns="http://www.w3.org/2000/svg" xmlns:xlink="http://www.w3.org/1999/xlink" x="0px" y="0px"
	 viewBox="0 0 30 30" style="enable-background:new 0 0 30 30;" xml:space="preserve">
<circle style="fill:#C4E213;" cx="81.8" cy="233.9" r="15"/>
<g>
	<path style="fill:#FFFFFF;" d="M83.4,229.5l2.7,2.7l-6.8,6.8l-2.7-2.7L83.4,229.5z M88.2,228.9l-1.2-1.2c-0.5-0.5-1.2-0.5-1.7,0
		l-1.2,1.2l2.7,2.7l1.3-1.3C88.5,229.8,88.5,229.2,88.2,228.9z M75.1,240.2c0,0.2,0.2,0.4,0.4,0.4l3-0.7l-2.7-2.7L75.1,240.2z"/>
</g>
<circle style="fill:#0CEF52;" cx="15" cy="15" r="15"/>
<path style="fill:#FFFFFF;" d="M19.5,12c0-0.1-0.1-0.2-0.2-0.2h-1.9v-1c0-1.3-1.1-2.4-2.4-2.4c-1.3,0-2.4,1.1-2.4,2.4v1h-1.9
	c-0.1,0-0.2,0.1-0.2,0.2l-0.4,9.4c0,0.1,0,0.1,0.1,0.1c0,0,0.1,0.1,0.1,0.1h9.4c0.1,0,0.1,0,0.1-0.1s0.1-0.1,0.1-0.1L19.5,12z
	 M13,10.8c0-1.1,0.9-2,2-2c1.1,0,2,0.9,2,2v1H13V10.8z M12.2,16.5c0-0.4,0.7-0.7,1.6-0.7c0.2,0,0.3,0,0.5,0v1.6c-0.1,0-0.3,0-0.5,0
	c-0.9,0-1.6-0.3-1.6-0.7V16.5z M12.2,17.3c0-0.1,0-0.1,0-0.2c0.2,0.3,0.8,0.6,1.6,0.6c0.2,0,0.3,0,0.5,0v0.5c-0.1,0-0.3,0-0.5,0
	c-0.9,0-1.6-0.3-1.6-0.7V17.3z M13.8,19c-0.9,0-1.6-0.3-1.6-0.7v-0.2c0-0.1,0-0.1,0-0.2c0.2,0.3,0.8,0.6,1.6,0.6c0.2,0,0.3,0,0.5,0
	v0v0.2c0,0.1,0,0.2,0.1,0.3C14.2,19,14,19,13.8,19z M17.8,18.7c0,0.4-0.7,0.7-1.6,0.7c-0.9,0-1.6-0.3-1.6-0.7v-0.2
	c0-0.1,0-0.1,0-0.2c0.2,0.3,0.8,0.6,1.6,0.6c0.8,0,1.4-0.3,1.6-0.6c0,0,0,0.1,0,0.2V18.7z M17.8,17.9c0,0.4-0.7,0.7-1.6,0.7
	c-0.9,0-1.6-0.3-1.6-0.7v-0.2c0-0.1,0-0.1,0-0.2c0.2,0.3,0.8,0.6,1.6,0.6c0.8,0,1.4-0.3,1.6-0.6c0,0,0,0.1,0,0.2V17.9z M17.8,17
	c0,0.4-0.7,0.7-1.6,0.7c-0.9,0-1.6-0.3-1.6-0.7v-0.2c0-0.1,0-0.1,0-0.2c0.2,0.3,0.8,0.6,1.6,0.6c0.8,0,1.4-0.3,1.6-0.6
	c0,0,0,0.1,0,0.2V17z M17.8,16.2c0,0.4-0.7,0.7-1.6,0.7c-0.9,0-1.6-0.3-1.6-0.7V16c0-0.1,0-0.1,0-0.2c0.2,0.3,0.8,0.6,1.6,0.6
	c0.8,0,1.4-0.3,1.6-0.6c0,0,0,0.1,0,0.2V16.2z M17.8,15.4c0,0.4-0.7,0.7-1.6,0.7c-0.9,0-1.6-0.3-1.6-0.7v-0.2c0-0.4,0.7-0.7,1.6-0.7
	c0.9,0,1.6,0.3,1.6,0.7V15.4z"/>
</svg>
