<?xml version="1.0" encoding="utf-8"?>
<!-- Generator: Adobe Illustrator 23.0.2, SVG Export Plug-In . SVG Version: 6.00 Build 0)  -->
<svg version="1.1" id="Layer_1" xmlns="http://www.w3.org/2000/svg" xmlns:xlink="http://www.w3.org/1999/xlink" x="0px" y="0px"
	 viewBox="0 0 16.1 12" style="enable-background:new 0 0 16.1 12;" xml:space="preserve">
<g>
	<path style="fill:#C4C7CB;" d="M6.8,0C3.1,0.1,0.1,3.1,0,6.8C0,8.4,0.5,9.9,1.3,11.1c0.3,0.5,1,0.5,1.5,0.1L12,2.1
		C10.7,0.7,8.8-0.1,6.8,0z"/>
	<path style="fill:#DDDDDD;" d="M14.8,0.9c-0.3-0.5-1-0.5-1.5-0.1L4.1,9.9c0,0,0,0,0,0l0,0c0.1,0.1,0.2,0.2,0.2,0.2
		c1.3,1.2,3.1,1.9,5,1.8c3.7-0.1,6.7-3.1,6.8-6.8C16.1,3.6,15.6,2.1,14.8,0.9z"/>
</g>
</svg>
