<?xml version="1.0" encoding="utf-8"?>
<!-- Generator: Adobe Illustrator 23.0.2, SVG Export Plug-In . SVG Version: 6.00 Build 0)  -->
<svg version="1.1" id="Layer_1" xmlns="http://www.w3.org/2000/svg" xmlns:xlink="http://www.w3.org/1999/xlink" x="0px" y="0px"
	 viewBox="0 0 30 30" style="enable-background:new 0 0 30 30;" xml:space="preserve">
<circle style="fill:#C4E213;" cx="81.3" cy="233.8" r="15"/>
<g>
	<path style="fill:#FFFFFF;" d="M82.9,229.4l2.7,2.7l-6.8,6.8l-2.7-2.7L82.9,229.4z M87.7,228.7l-1.2-1.2c-0.5-0.5-1.2-0.5-1.7,0
		l-1.2,1.2l2.7,2.7l1.3-1.3C88.1,229.7,88.1,229.1,87.7,228.7z M74.7,240.1c0,0.2,0.2,0.4,0.4,0.4l3-0.7l-2.7-2.7L74.7,240.1z"/>
</g>
<circle style="fill:#EF0CEF;" cx="15" cy="15" r="15"/>
<g>
	<g>
		<path style="fill:#FFFFFF;" d="M11.6,18.7l-5.3-2.9v-1.6l5.3-2.9v1.9L7.9,15l3.7,1.8V18.7z"/>
		<path style="fill:#FFFFFF;" d="M12.5,19.7l3.5-9.4h1.1l-3.5,9.4H12.5z"/>
		<path style="fill:#FFFFFF;" d="M18.4,18.7v-1.9l3.7-1.8l-3.7-1.8v-1.9l5.3,2.9v1.6L18.4,18.7z"/>
	</g>
</g>
</svg>
