<?xml version="1.0" encoding="utf-8"?>
<!-- Generator: Adobe Illustrator 23.0.2, SVG Export Plug-In . SVG Version: 6.00 Build 0)  -->
<svg version="1.1" id="Layer_1" xmlns="http://www.w3.org/2000/svg" xmlns:xlink="http://www.w3.org/1999/xlink" x="0px" y="0px"
	 viewBox="0 0 30 30" style="enable-background:new 0 0 30 30;" xml:space="preserve">
<circle style="fill:#C4E213;" cx="82" cy="233.7" r="15"/>
<g>
	<path style="fill:#FFFFFF;" d="M83.6,229.3l2.7,2.7l-6.8,6.8l-2.7-2.7L83.6,229.3z M88.4,228.6l-1.2-1.2c-0.5-0.5-1.2-0.5-1.7,0
		l-1.2,1.2l2.7,2.7l1.3-1.3C88.8,229.6,88.8,229,88.4,228.6z M75.4,239.9c0,0.2,0.2,0.4,0.4,0.4l3-0.7l-2.7-2.7L75.4,239.9z"/>
</g>
<circle style="fill:#EF0CEF;" cx="15" cy="15" r="15"/>
<g>
	<g>
		<path style="fill:#FFFFFF;" d="M6.6,11.3l5.3,2.9v1.6l-5.3,2.9v-1.9l3.7-1.8l-3.7-1.8V11.3z"/>
		<path style="fill:#FFFFFF;" d="M12.9,19.7l3.5-9.4h1.1L14,19.7H12.9z"/>
		<path style="fill:#FFFFFF;" d="M18.7,18.7v-1.9l3.7-1.8l-3.7-1.8v-1.9l5.3,2.9v1.6L18.7,18.7z"/>
	</g>
</g>
</svg>
