<?xml version="1.0" encoding="utf-8"?>
<!-- Generator: Adobe Illustrator 23.0.2, SVG Export Plug-In . SVG Version: 6.00 Build 0)  -->
<svg version="1.1" id="Layer_1" xmlns="http://www.w3.org/2000/svg" xmlns:xlink="http://www.w3.org/1999/xlink" x="0px" y="0px"
	 viewBox="0 0 30 30" style="enable-background:new 0 0 30 30;" xml:space="preserve">
<circle style="fill:#C4E213;" cx="81.6" cy="232.6" r="15"/>
<g>
	<path style="fill:#FFFFFF;" d="M83.2,228.2l2.7,2.7l-6.8,6.8l-2.7-2.7L83.2,228.2z M87.9,227.6l-1.2-1.2c-0.5-0.5-1.2-0.5-1.7,0
		l-1.2,1.2l2.7,2.7l1.3-1.3C88.3,228.5,88.3,227.9,87.9,227.6z M74.9,238.9c0,0.2,0.2,0.4,0.4,0.4l3-0.7l-2.7-2.7L74.9,238.9z"/>
</g>
<circle style="fill:#EF0CEF;" cx="15" cy="15" r="15"/>
<g>
	<g>
		<path style="fill:#FFFFFF;" d="M13.9,11.5H5.4c-0.1,0-0.1,0.1-0.1,0.1v6.7c0,0.1,0.1,0.1,0.1,0.1h8.6c0.1,0,0.1-0.1,0.1-0.1v-6.7
			C14.1,11.6,14,11.5,13.9,11.5z M13.2,17.4l-1.9-2c0,0-0.1,0-0.1,0l-1.3,1.2l-1.7-2.1c0,0,0,0,0,0c0,0,0,0,0,0l-2,2.7v-4.8h7.2
			L13.2,17.4L13.2,17.4z"/>
		<path style="fill:#FFFFFF;" d="M11.1,14.4c0.4,0,0.7-0.3,0.7-0.7c0-0.4-0.3-0.7-0.7-0.7c-0.4,0-0.7,0.3-0.7,0.7
			C10.4,14.1,10.8,14.4,11.1,14.4z"/>
	</g>
	<g>
		<path style="fill:#FFFFFF;" d="M24.7,11.5h-8.6c-0.1,0-0.1,0.1-0.1,0.1v6.7c0,0.1,0.1,0.1,0.1,0.1h8.6c0.1,0,0.1-0.1,0.1-0.1v-6.7
			C24.8,11.6,24.8,11.5,24.7,11.5z M24,17.4l-1.9-2c0,0-0.1,0-0.1,0l-1.3,1.2l-1.7-2.1c0,0,0,0,0,0c0,0,0,0,0,0l-2,2.7v-4.8H24V17.4
			L24,17.4z"/>
		<path style="fill:#FFFFFF;" d="M21.9,14.4c0.4,0,0.7-0.3,0.7-0.7c0-0.4-0.3-0.7-0.7-0.7c-0.4,0-0.7,0.3-0.7,0.7
			C21.2,14.1,21.5,14.4,21.9,14.4z"/>
	</g>
	<path style="fill:#FFFFFF;" d="M4.3,16.2L3,15.5v-0.4l1.3-0.7v0.5l-0.9,0.4l0.9,0.5V16.2z"/>
	<path style="fill:#FFFFFF;" d="M25.7,16.2v-0.5l0.9-0.5l-0.9-0.5v-0.5l1.3,0.7v0.4L25.7,16.2z"/>
</g>
</svg>
