<?xml version="1.0" encoding="utf-8"?>
<!-- Generator: Adobe Illustrator 23.0.2, SVG Export Plug-In . SVG Version: 6.00 Build 0)  -->
<svg version="1.1" id="Layer_1" xmlns="http://www.w3.org/2000/svg" xmlns:xlink="http://www.w3.org/1999/xlink" x="0px" y="0px"
	 viewBox="0 0 30 30" style="enable-background:new 0 0 30 30;" xml:space="preserve">
<circle style="fill:#C4E213;" cx="81.9" cy="233.3" r="15"/>
<g>
	<path style="fill:#FFFFFF;" d="M83.5,228.9l2.7,2.7l-6.8,6.8l-2.7-2.7L83.5,228.9z M88.2,228.3L87,227c-0.5-0.5-1.2-0.5-1.7,0
		l-1.2,1.2l2.7,2.7l1.3-1.3C88.6,229.2,88.6,228.6,88.2,228.3z M75.2,239.6c0,0.2,0.2,0.4,0.4,0.4l3-0.7l-2.7-2.7L75.2,239.6z"/>
</g>
<circle style="fill:#EF0CEF;" cx="15" cy="15" r="15"/>
<path style="fill:#FFFFFF;" d="M15,17.4L15,17.4c-0.5,0-1-0.4-1-1v-7c0-0.5,0.4-1,1-1h0c0.5,0,1,0.4,1,1v7C16,17,15.5,17.4,15,17.4z
	"/>
<circle style="fill:#FFFFFF;" cx="15" cy="20.5" r="1.1"/>
</svg>
