<?xml version="1.0" encoding="utf-8"?>
<!-- Generator: Adobe Illustrator 23.0.2, SVG Export Plug-In . SVG Version: 6.00 Build 0)  -->
<svg version="1.1" id="Layer_1" xmlns="http://www.w3.org/2000/svg" xmlns:xlink="http://www.w3.org/1999/xlink" x="0px" y="0px"
	 viewBox="0 0 30 30" style="enable-background:new 0 0 30 30;" xml:space="preserve">
<circle style="fill:#C4E213;" cx="81.1" cy="233.6" r="15"/>
<g>
	<path style="fill:#FFFFFF;" d="M82.8,229.2l2.7,2.7l-6.8,6.8l-2.7-2.7L82.8,229.2z M87.5,228.5l-1.2-1.2c-0.5-0.5-1.2-0.5-1.7,0
		l-1.2,1.2l2.7,2.7l1.3-1.3C87.9,229.5,87.9,228.9,87.5,228.5z M74.5,239.8c0,0.2,0.2,0.4,0.4,0.4l3-0.7l-2.7-2.7L74.5,239.8z"/>
</g>
<circle style="fill:#EF0CEF;" cx="15" cy="15" r="15"/>
<path style="fill:#FFFFFF;" d="M21.5,21.5l-3.2-3.3c0.8-1,1.3-2.2,1.3-3.5c0-3-2.4-5.5-5.5-5.5s-5.5,2.4-5.5,5.5s2.4,5.5,5.5,5.5
	c1.1,0,2.2-0.3,3.1-1l3.2,3.4c0.1,0.1,0.3,0.2,0.5,0.2c0.2,0,0.4-0.1,0.5-0.2C21.7,22.3,21.7,21.8,21.5,21.5z M14.1,10.7
	c2.2,0,4,1.8,4,4s-1.8,4-4,4s-4-1.8-4-4S11.9,10.7,14.1,10.7z"/>
</svg>
