<?xml version="1.0" encoding="utf-8"?>
<!-- Generator: Adobe Illustrator 23.0.2, SVG Export Plug-In . SVG Version: 6.00 Build 0)  -->
<svg version="1.1" id="Layer_1" xmlns="http://www.w3.org/2000/svg" xmlns:xlink="http://www.w3.org/1999/xlink" x="0px" y="0px"
	 viewBox="0 0 30 30" style="enable-background:new 0 0 30 30;" xml:space="preserve">
<circle style="fill:#C4E213;" cx="82.2" cy="232.9" r="15"/>
<g>
	<path style="fill:#FFFFFF;" d="M83.8,228.5l2.7,2.7l-6.8,6.8l-2.7-2.7L83.8,228.5z M88.6,227.9l-1.2-1.2c-0.5-0.5-1.2-0.5-1.7,0
		l-1.2,1.2l2.7,2.7l1.3-1.3C88.9,228.8,88.9,228.2,88.6,227.9z M75.5,239.2c0,0.2,0.2,0.4,0.4,0.4l3-0.7l-2.7-2.7L75.5,239.2z"/>
</g>
<circle style="fill:#EF0CEF;" cx="15" cy="15" r="15"/>
<g>
	<g>
		<path style="fill:#FFFFFF;" d="M21.1,10.1H9c-0.1,0-0.2,0.1-0.2,0.2v9.5c0,0.1,0.1,0.2,0.2,0.2h12.1c0.1,0,0.2-0.1,0.2-0.2v-9.5
			C21.3,10.2,21.2,10.1,21.1,10.1z M20.1,18.3l-2.7-2.8c0,0-0.1,0-0.1,0l-1.9,1.7l-2.4-3c0,0,0,0-0.1,0c0,0,0,0-0.1,0L10,18v-6.8
			h10.1V18.3L20.1,18.3z"/>
		<path style="fill:#FFFFFF;" d="M17.2,14.1c0.5,0,1-0.4,1-1c0-0.5-0.4-1-1-1c-0.5,0-1,0.4-1,1C16.2,13.7,16.6,14.1,17.2,14.1z"/>
	</g>
	<path style="fill:#FFFFFF;" d="M7.5,16.8l-1.9-1v-0.6l1.9-1v0.7l-1.3,0.6l1.3,0.7V16.8z"/>
	<path style="fill:#FFFFFF;" d="M22.5,16.8v-0.7l1.3-0.7l-1.3-0.6v-0.7l1.9,1v0.6L22.5,16.8z"/>
</g>
</svg>
