<?xml version="1.0" encoding="utf-8"?>
<!-- Generator: Adobe Illustrator 23.0.2, SVG Export Plug-In . SVG Version: 6.00 Build 0)  -->
<svg version="1.1" id="Layer_1" xmlns="http://www.w3.org/2000/svg" xmlns:xlink="http://www.w3.org/1999/xlink" x="0px" y="0px"
	 viewBox="0 0 30 30" style="enable-background:new 0 0 30 30;" xml:space="preserve">
<circle style="fill:#C4E213;" cx="80.9" cy="233.6" r="15"/>
<g>
	<path style="fill:#FFFFFF;" d="M82.5,229.2l2.7,2.7l-6.8,6.8l-2.7-2.7L82.5,229.2z M87.2,228.5l-1.2-1.2c-0.5-0.5-1.2-0.5-1.7,0
		l-1.2,1.2l2.7,2.7l1.3-1.3C87.6,229.5,87.6,228.9,87.2,228.5z M74.2,239.8c0,0.2,0.2,0.4,0.4,0.4l3-0.7l-2.7-2.7L74.2,239.8z"/>
</g>
<circle style="fill:#5430CE;" cx="15" cy="15" r="15"/>
<g>
	<path style="fill:#FFFFFF;" d="M21.2,9.8H8.5c-0.1,0-0.2,0.1-0.2,0.2v10c0,0.1,0.1,0.2,0.2,0.2h12.8c0.1,0,0.2-0.1,0.2-0.2V10
		C21.5,9.9,21.4,9.8,21.2,9.8z M20.2,18.5l-2.9-3c0,0-0.1,0-0.1,0l-2,1.8l-2.5-3.1c0,0,0,0-0.1,0c0,0-0.1,0-0.1,0l-3,4v-7.2h10.7
		V18.5L20.2,18.5z"/>
	<path style="fill:#FFFFFF;" d="M17,14.1c0.6,0,1-0.5,1-1c0-0.6-0.5-1-1-1c-0.6,0-1,0.5-1,1C16,13.6,16.5,14.1,17,14.1z"/>
</g>
</svg>
