<?xml version="1.0" encoding="utf-8"?>
<!-- Generator: Adobe Illustrator 23.0.2, SVG Export Plug-In . SVG Version: 6.00 Build 0)  -->
<svg version="1.1" id="Layer_1" xmlns="http://www.w3.org/2000/svg" xmlns:xlink="http://www.w3.org/1999/xlink" x="0px" y="0px"
	 viewBox="0 0 30 30" style="enable-background:new 0 0 30 30;" xml:space="preserve">
<circle style="fill:#C4E213;" cx="81" cy="234.1" r="15"/>
<g>
	<path style="fill:#FFFFFF;" d="M82.6,229.7l2.7,2.7l-6.8,6.8l-2.7-2.7L82.6,229.7z M87.4,229l-1.2-1.2c-0.5-0.5-1.2-0.5-1.7,0
		l-1.2,1.2l2.7,2.7l1.3-1.3C87.7,230,87.7,229.4,87.4,229z M74.4,240.3c0,0.2,0.2,0.4,0.4,0.4l3-0.7l-2.7-2.7L74.4,240.3z"/>
</g>
<circle style="fill:#5430CE;" cx="15" cy="15" r="15"/>
<g>
	<path style="fill:#FFFFFF;" d="M22.3,20.4H7.7c-0.8,0-1.4-0.6-1.4-1.4v-7.8c0-0.8,0.6-1.4,1.4-1.4h14.7c0.8,0,1.4,0.6,1.4,1.4v7.8
		C23.8,19.7,23.1,20.4,22.3,20.4z M7.7,10.6c-0.3,0-0.6,0.3-0.6,0.6v7.8c0,0.3,0.3,0.6,0.6,0.6h14.7c0.3,0,0.6-0.3,0.6-0.6v-7.8
		c0-0.3-0.3-0.6-0.6-0.6H7.7z"/>
</g>
<g>
	<path style="fill:#FFFFFF;" d="M9.2,16.5c0-0.1,0-0.4,0-0.5v-2.5h0.4v1.3h0c0.1-0.2,0.4-0.4,0.7-0.4c0.5,0,0.9,0.4,0.9,1.1
		c0,0.7-0.5,1.1-0.9,1.1c-0.3,0-0.5-0.1-0.7-0.4h0l0,0.3H9.2z M9.6,15.7c0,0,0,0.1,0,0.1c0.1,0.3,0.3,0.4,0.6,0.4
		c0.4,0,0.6-0.3,0.6-0.8c0-0.4-0.2-0.8-0.6-0.8c-0.3,0-0.5,0.2-0.6,0.5c0,0,0,0.1,0,0.2V15.7z"/>
	<path style="fill:#FFFFFF;" d="M13.4,16c0,0.2,0,0.4,0,0.6h-0.3l0-0.3h0c-0.1,0.2-0.3,0.4-0.7,0.4c-0.3,0-0.7-0.2-0.7-0.9v-1.2H12
		v1.1c0,0.4,0.1,0.7,0.5,0.7c0.3,0,0.4-0.2,0.5-0.3c0-0.1,0-0.1,0-0.2v-1.3h0.4V16z"/>
	<path style="fill:#FFFFFF;" d="M14.5,13.9v0.6H15v0.3h-0.5v1.1c0,0.3,0.1,0.4,0.3,0.4c0.1,0,0.2,0,0.2,0l0,0.3
		c-0.1,0-0.2,0.1-0.3,0.1c-0.2,0-0.3-0.1-0.4-0.2c-0.1-0.1-0.1-0.3-0.1-0.5v-1.1h-0.3v-0.3h0.3V14L14.5,13.9z"/>
	<path style="fill:#FFFFFF;" d="M15.9,13.9v0.6h0.5v0.3h-0.5v1.1c0,0.3,0.1,0.4,0.3,0.4c0.1,0,0.2,0,0.2,0l0,0.3
		c-0.1,0-0.2,0.1-0.3,0.1c-0.2,0-0.3-0.1-0.4-0.2c-0.1-0.1-0.1-0.3-0.1-0.5v-1.1h-0.3v-0.3h0.3V14L15.9,13.9z"/>
	<path style="fill:#FFFFFF;" d="M18.7,15.5c0,0.8-0.5,1.1-1,1.1c-0.6,0-1-0.4-1-1.1c0-0.7,0.5-1.1,1-1.1
		C18.3,14.4,18.7,14.9,18.7,15.5z M17,15.5c0,0.5,0.3,0.8,0.6,0.8c0.4,0,0.6-0.3,0.6-0.8c0-0.4-0.2-0.8-0.6-0.8
		C17.2,14.7,17,15.1,17,15.5z"/>
	<path style="fill:#FFFFFF;" d="M19.2,15c0-0.2,0-0.4,0-0.6h0.3l0,0.3h0c0.1-0.2,0.3-0.4,0.7-0.4c0.3,0,0.7,0.2,0.7,0.9v1.2h-0.4
		v-1.2c0-0.3-0.1-0.6-0.5-0.6c-0.2,0-0.4,0.2-0.5,0.4c0,0,0,0.1,0,0.2v1.2h-0.4V15z"/>
</g>
</svg>
