<?xml version="1.0" encoding="utf-8"?>
<!-- Generator: Adobe Illustrator 23.0.2, SVG Export Plug-In . SVG Version: 6.00 Build 0)  -->
<svg version="1.1" id="Layer_1" xmlns="http://www.w3.org/2000/svg" xmlns:xlink="http://www.w3.org/1999/xlink" x="0px" y="0px"
	 viewBox="0 0 30 30" style="enable-background:new 0 0 30 30;" xml:space="preserve">
<circle style="fill:#C4E213;" cx="81.1" cy="233" r="15"/>
<g>
	<path style="fill:#FFFFFF;" d="M82.7,228.6l2.7,2.7l-6.8,6.8l-2.7-2.7L82.7,228.6z M87.5,227.9l-1.2-1.2c-0.5-0.5-1.2-0.5-1.7,0
		l-1.2,1.2l2.7,2.7l1.3-1.3C87.8,228.8,87.8,228.3,87.5,227.9z M74.5,239.2c0,0.2,0.2,0.4,0.4,0.4l3-0.7l-2.7-2.7L74.5,239.2z"/>
</g>
<circle style="fill:#F92850;" cx="15" cy="15" r="15"/>
<path style="fill:#FFFFFF;" d="M20.6,13h-0.9v-1.2c0-2.3-1.9-4.2-4.2-4.2s-4.2,1.9-4.2,4.2V13h-0.9c-0.2,0-0.3,0.1-0.3,0.3v7.6
	c0,0.7,0.5,1.2,1.2,1.2h8.5c0.7,0,1.2-0.5,1.2-1.2v-7.6C20.9,13.1,20.8,13,20.6,13z M15.5,20h-0.8v-0.8h0.8V20z M16.5,17.5
	c-0.3,0.2-0.7,0.3-1.1,0.3v0.7h-0.7v-1.2H15c0.4,0,0.7-0.1,0.9-0.2c0.2-0.1,0.3-0.3,0.3-0.7c0-0.2-0.1-0.4-0.2-0.5
	c-0.1-0.1-0.3-0.2-0.5-0.2c-0.2,0-0.4,0.1-0.6,0.2c-0.1,0.1-0.2,0.3-0.2,0.5H14c0-0.3,0.1-0.5,0.2-0.7c0.1-0.2,0.3-0.4,0.5-0.5
	c0.2-0.1,0.5-0.2,0.8-0.2c0.4,0,0.8,0.1,1,0.3c0.3,0.2,0.4,0.6,0.4,1C16.9,17,16.8,17.3,16.5,17.5z M17.9,13h-4.8v-1.2
	c0-1.3,1.1-2.4,2.4-2.4c1.3,0,2.4,1.1,2.4,2.4V13z"/>
</svg>
