<?xml version="1.0" encoding="utf-8"?>
<!-- Generator: Adobe Illustrator 23.0.2, SVG Export Plug-In . SVG Version: 6.00 Build 0)  -->
<svg version="1.1" id="Layer_1" xmlns="http://www.w3.org/2000/svg" xmlns:xlink="http://www.w3.org/1999/xlink" x="0px" y="0px"
	 viewBox="0 0 30 30" style="enable-background:new 0 0 30 30;" xml:space="preserve">
<circle style="fill:#C4E213;" cx="81.4" cy="233.3" r="15"/>
<g>
	<path style="fill:#FFFFFF;" d="M83,228.9l2.7,2.7l-6.8,6.8l-2.7-2.7L83,228.9z M87.7,228.2l-1.2-1.2c-0.5-0.5-1.2-0.5-1.7,0
		l-1.2,1.2l2.7,2.7l1.3-1.3C88.1,229.2,88.1,228.6,87.7,228.2z M74.7,239.5c0,0.2,0.2,0.4,0.4,0.4l3-0.7l-2.7-2.7L74.7,239.5z"/>
</g>
<circle style="fill:#F92850;" cx="15" cy="15" r="15"/>
<g>
	<g>
		<path style="fill:#FFFFFF;" d="M20.1,13.2h-0.9V12c0-2.3-1.9-4.2-4.2-4.2s-4.2,1.9-4.2,4.2v1.2H9.9c-0.2,0-0.3,0.1-0.3,0.3v7.6
			c0,0.7,0.5,1.2,1.2,1.2h8.5c0.7,0,1.2-0.5,1.2-1.2v-7.6C20.5,13.3,20.3,13.2,20.1,13.2z M15.9,19.5c0,0.1,0,0.2-0.1,0.2
			c-0.1,0.1-0.1,0.1-0.2,0.1h-1.2c-0.1,0-0.2,0-0.2-0.1c-0.1-0.1-0.1-0.1-0.1-0.2l0.2-1.7c-0.3-0.2-0.5-0.6-0.5-1
			c0-0.7,0.5-1.2,1.2-1.2s1.2,0.5,1.2,1.2c0,0.4-0.2,0.7-0.5,1L15.9,19.5z M17.4,13.2h-4.8V12c0-1.3,1.1-2.4,2.4-2.4
			s2.4,1.1,2.4,2.4V13.2z"/>
	</g>
</g>
</svg>
