<?xml version="1.0" encoding="utf-8"?>
<!-- Generator: Adobe Illustrator 23.0.2, SVG Export Plug-In . SVG Version: 6.00 Build 0)  -->
<svg version="1.1" id="Layer_1" xmlns="http://www.w3.org/2000/svg" xmlns:xlink="http://www.w3.org/1999/xlink" x="0px" y="0px"
	 viewBox="0 0 30 30" style="enable-background:new 0 0 30 30;" xml:space="preserve">
<circle style="fill:#C4E213;" cx="81.5" cy="232.9" r="15"/>
<g>
	<path style="fill:#FFFFFF;" d="M83.1,228.5l2.7,2.7l-6.8,6.8l-2.7-2.7L83.1,228.5z M87.9,227.9l-1.2-1.2c-0.5-0.5-1.2-0.5-1.7,0
		l-1.2,1.2l2.7,2.7l1.3-1.3C88.2,228.8,88.2,228.2,87.9,227.9z M74.8,239.2c0,0.2,0.2,0.4,0.4,0.4l3-0.7l-2.7-2.7L74.8,239.2z"/>
</g>
<circle style="fill:#F92850;" cx="15" cy="15" r="15"/>
<path style="fill:#FFFFFF;" d="M20.1,12.9h-0.9v-1.2c0-2.3-1.9-4.2-4.2-4.2s-4.2,1.9-4.2,4.2v1.2H9.9c-0.2,0-0.3,0.1-0.3,0.3v7.6
	c0,0.7,0.5,1.2,1.2,1.2h8.5c0.7,0,1.2-0.5,1.2-1.2v-7.6C20.5,13,20.3,12.9,20.1,12.9z M12.6,11.7c0-1.3,1.1-2.4,2.4-2.4
	c1.3,0,2.4,1.1,2.4,2.4v1.2h-4.8V11.7z M19,20.3H11v-0.6H19V20.3z M19,17.8H11v-0.6H19V17.8z M19,15.2H11v-0.6H19V15.2z"/>
</svg>
