<?xml version="1.0" encoding="utf-8"?>
<!-- Generator: Adobe Illustrator 23.0.2, SVG Export Plug-In . SVG Version: 6.00 Build 0)  -->
<svg version="1.1" id="Layer_1" xmlns="http://www.w3.org/2000/svg" xmlns:xlink="http://www.w3.org/1999/xlink" x="0px" y="0px"
	 viewBox="0 0 30 30" style="enable-background:new 0 0 30 30;" xml:space="preserve">
<circle style="fill:#C4E213;" cx="81.7" cy="233.6" r="15"/>
<g>
	<path style="fill:#FFFFFF;" d="M83.3,229.2l2.7,2.7l-6.8,6.8l-2.7-2.7L83.3,229.2z M88.1,228.6l-1.2-1.2c-0.5-0.5-1.2-0.5-1.7,0
		l-1.2,1.2l2.7,2.7l1.3-1.3C88.4,229.5,88.4,228.9,88.1,228.6z M75,239.9c0,0.2,0.2,0.4,0.4,0.4l3-0.7l-2.7-2.7L75,239.9z"/>
</g>
<circle style="fill:#F92850;" cx="15" cy="15" r="15"/>
<g>
	<path style="fill:#FFFFFF;" d="M20.1,13.2h-0.9V12c0-2.3-1.9-4.2-4.2-4.2s-4.2,1.9-4.2,4.2v1.2H9.9c-0.2,0-0.3,0.1-0.3,0.3v7.6
		c0,0.7,0.5,1.2,1.2,1.2h8.5c0.7,0,1.2-0.5,1.2-1.2v-7.6C20.4,13.3,20.3,13.2,20.1,13.2z M12.6,12c0-1.3,1.1-2.4,2.4-2.4
		c1.3,0,2.4,1.1,2.4,2.4v1.2h-4.8V12z M18.4,17.4c0,0.3-0.3,0.6-0.6,0.6h-1.6c-0.3,0-0.6-0.3-0.6-0.6s0.3-0.6,0.6-0.6h0.6
		c-0.3-0.6-1-1-1.7-1c-1.1,0-2.1,0.9-2.1,2.1S14,20,15.2,20c0.3,0,0.6,0.3,0.6,0.6s-0.3,0.6-0.6,0.6c-1.8,0-3.2-1.4-3.2-3.2
		s1.4-3.2,3.2-3.2c0.8,0,1.6,0.3,2.1,0.9c0.1-0.2,0.3-0.4,0.5-0.4c0.3,0,0.6,0.3,0.6,0.6V17.4z"/>
</g>
</svg>
