<?xml version="1.0" encoding="utf-8"?>
<!-- Generator: Adobe Illustrator 23.0.2, SVG Export Plug-In . SVG Version: 6.00 Build 0)  -->
<svg version="1.1" id="Layer_1" xmlns="http://www.w3.org/2000/svg" xmlns:xlink="http://www.w3.org/1999/xlink" x="0px" y="0px"
	 viewBox="0 0 29.9 29.9" style="enable-background:new 0 0 29.9 29.9;" xml:space="preserve">
<circle style="fill:#C4E213;" cx="81.8" cy="233.1" r="15"/>
<g>
	<path style="fill:#FFFFFF;" d="M83.4,228.7l2.7,2.7l-6.8,6.8l-2.7-2.7L83.4,228.7z M88.2,228l-1.2-1.2c-0.5-0.5-1.2-0.5-1.7,0
		l-1.2,1.2l2.7,2.7l1.3-1.3C88.6,229,88.6,228.4,88.2,228z M75.2,239.3c0,0.2,0.2,0.4,0.4,0.4l3-0.7l-2.7-2.7L75.2,239.3z"/>
</g>
<g>
	<circle style="fill:#0AF2A5;" cx="14.9" cy="14.9" r="14.9"/>
	<path style="fill:#5430CE;" d="M25.5,4.4c5.8,5.8,5.8,15.3,0,21.1s-15.3,5.8-21.1,0"/>
</g>
<g>
	<rect x="7.9" y="9.9" style="fill:#FFFFFF;" width="14" height="1"/>
	<rect x="7.9" y="14.4" style="fill:#FFFFFF;" width="14" height="1"/>
	<rect x="7.9" y="18.9" style="fill:#FFFFFF;" width="14" height="1"/>
</g>
</svg>
