<?xml version="1.0" encoding="utf-8"?>
<!-- Generator: Adobe Illustrator 23.0.2, SVG Export Plug-In . SVG Version: 6.00 Build 0)  -->
<svg version="1.1" id="Layer_1" xmlns="http://www.w3.org/2000/svg" xmlns:xlink="http://www.w3.org/1999/xlink" x="0px" y="0px"
	 viewBox="0 0 29.9 29.9" style="enable-background:new 0 0 29.9 29.9;" xml:space="preserve">
<circle style="fill:#C4E213;" cx="81.2" cy="233.3" r="15"/>
<g>
	<path style="fill:#FFFFFF;" d="M82.8,228.9l2.7,2.7l-6.8,6.8l-2.7-2.7L82.8,228.9z M87.6,228.3l-1.2-1.2c-0.5-0.5-1.2-0.5-1.7,0
		l-1.2,1.2l2.7,2.7l1.3-1.3C87.9,229.2,87.9,228.6,87.6,228.3z M74.5,239.6c0,0.2,0.2,0.4,0.4,0.4l3-0.7l-2.7-2.7L74.5,239.6z"/>
</g>
<g>
	<circle style="fill:#0AF2A5;" cx="14.9" cy="14.9" r="14.9"/>
	<path style="fill:#5430CE;" d="M25.5,4.4c5.8,5.8,5.8,15.3,0,21.1s-15.3,5.8-21.1,0"/>
</g>
<g>
	<path style="fill:#FFFFFF;" d="M22.3,20.3H7.6c-0.8,0-1.4-0.6-1.4-1.4V11c0-0.8,0.6-1.4,1.4-1.4h14.7c0.8,0,1.4,0.6,1.4,1.4v7.8
		C23.7,19.6,23.1,20.3,22.3,20.3z M7.6,10.5C7.3,10.5,7,10.7,7,11v7.8c0,0.3,0.3,0.6,0.6,0.6h14.7c0.3,0,0.6-0.3,0.6-0.6V11
		c0-0.3-0.3-0.6-0.6-0.6H7.6z"/>
</g>
<g>
	<path style="fill:#FFFFFF;" d="M8.8,13.6h0.6c0.3,0,0.5,0,0.6,0.1c0.1,0.1,0.2,0.2,0.2,0.4c0,0.1,0,0.2-0.1,0.3
		c-0.1,0.1-0.2,0.1-0.3,0.2v0c0.2,0,0.3,0.1,0.3,0.2c0.1,0.1,0.1,0.2,0.1,0.3c0,0.2-0.1,0.3-0.2,0.5c-0.1,0.1-0.3,0.2-0.6,0.2H8.8
		V13.6z M9.2,14.5h0.3c0.1,0,0.3,0,0.3-0.1c0.1,0,0.1-0.1,0.1-0.2c0-0.1,0-0.2-0.1-0.2c-0.1,0-0.2-0.1-0.3-0.1H9.2V14.5z M9.2,14.8
		v0.7h0.4c0.1,0,0.3,0,0.3-0.1s0.1-0.1,0.1-0.3c0-0.1,0-0.2-0.1-0.2c-0.1-0.1-0.2-0.1-0.3-0.1H9.2z"/>
	<path style="fill:#FFFFFF;" d="M11.9,15.7l0-0.2h0c0,0.1-0.1,0.1-0.2,0.2c-0.1,0-0.2,0.1-0.3,0.1c-0.2,0-0.3,0-0.4-0.1
		s-0.1-0.2-0.1-0.4v-1.1h0.3v1c0,0.1,0,0.2,0.1,0.3c0.1,0.1,0.1,0.1,0.2,0.1c0.1,0,0.3,0,0.3-0.1c0.1-0.1,0.1-0.2,0.1-0.4v-0.8h0.3
		v1.6H11.9z"/>
	<path style="fill:#FFFFFF;" d="M12.5,14.1h0.4l0.3,0.9c0.1,0.1,0.1,0.3,0.1,0.4h0c0-0.1,0-0.1,0-0.2s0.1-0.4,0.4-1.1h0.4L13.4,16
		c-0.1,0.3-0.3,0.5-0.6,0.5c-0.1,0-0.2,0-0.2,0v-0.3c0.1,0,0.1,0,0.2,0c0.2,0,0.3-0.1,0.4-0.3l0.1-0.2L12.5,14.1z"/>
	<path style="fill:#FFFFFF;" d="M16.5,15.7h-0.3v-1c0-0.1,0-0.2-0.1-0.3s-0.1-0.1-0.2-0.1c-0.1,0-0.3,0-0.3,0.1
		c-0.1,0.1-0.1,0.2-0.1,0.4v0.8h-0.3v-1.6h0.3l0,0.2h0c0-0.1,0.1-0.1,0.2-0.2c0.1,0,0.2-0.1,0.3-0.1c0.4,0,0.6,0.2,0.6,0.6V15.7z"/>
	<path style="fill:#FFFFFF;" d="M18.5,14.9c0,0.3-0.1,0.5-0.2,0.6s-0.3,0.2-0.6,0.2c-0.2,0-0.3,0-0.4-0.1c-0.1-0.1-0.2-0.2-0.3-0.3
		c-0.1-0.1-0.1-0.3-0.1-0.4c0-0.3,0.1-0.5,0.2-0.6c0.1-0.1,0.3-0.2,0.6-0.2c0.2,0,0.4,0.1,0.6,0.2C18.4,14.5,18.5,14.7,18.5,14.9z
		 M17.3,14.9c0,0.4,0.1,0.6,0.4,0.6c0.3,0,0.4-0.2,0.4-0.6c0-0.4-0.1-0.6-0.4-0.6c-0.1,0-0.3,0-0.3,0.1S17.3,14.7,17.3,14.9z"/>
	<path style="fill:#FFFFFF;" d="M20.2,15.7L20,15c0-0.1-0.1-0.3-0.1-0.6h0c-0.1,0.3-0.1,0.5-0.1,0.6l-0.2,0.8h-0.4l-0.5-1.6H19
		l0.2,0.8c0,0.2,0.1,0.4,0.1,0.5h0c0-0.1,0-0.2,0-0.2c0-0.1,0-0.2,0.1-0.2l0.2-0.9H20l0.2,0.9c0,0,0,0.1,0.1,0.2s0,0.2,0,0.2h0
		c0-0.1,0-0.3,0.1-0.5l0.2-0.8h0.3l-0.5,1.6H20.2z"/>
</g>
</svg>
