<?xml version="1.0" encoding="utf-8"?>
<!-- Generator: Adobe Illustrator 23.0.2, SVG Export Plug-In . SVG Version: 6.00 Build 0)  -->
<svg version="1.1" id="Layer_1" xmlns="http://www.w3.org/2000/svg" xmlns:xlink="http://www.w3.org/1999/xlink" x="0px" y="0px"
	 viewBox="0 0 29.9 29.9" style="enable-background:new 0 0 29.9 29.9;" xml:space="preserve">
<circle style="fill:#C4E213;" cx="81.4" cy="233.3" r="15"/>
<g>
	<path style="fill:#FFFFFF;" d="M83,228.9l2.7,2.7l-6.8,6.8l-2.7-2.7L83,228.9z M87.8,228.2l-1.2-1.2c-0.5-0.5-1.2-0.5-1.7,0
		l-1.2,1.2l2.7,2.7l1.3-1.3C88.1,229.2,88.1,228.6,87.8,228.2z M74.7,239.5c0,0.2,0.2,0.4,0.4,0.4l3-0.7l-2.7-2.7L74.7,239.5z"/>
</g>
<g>
	<circle style="fill:#0AF2A5;" cx="14.9" cy="14.9" r="14.9"/>
	<path style="fill:#5430CE;" d="M25.5,4.4c5.8,5.8,5.8,15.3,0,21.1s-15.3,5.8-21.1,0"/>
</g>
<g>
	<path style="fill:#FFFFFF;" d="M11.4,21.6c0.5,0.5,1.2,0.5,1.7,0l5.7-5.7c0.2-0.2,0.3-0.4,0.4-0.6c0.6,0.2,1.1,0.2,1.6,0.2
		c1.2,0,1.6-0.5,1.8-0.9c0.1-0.3,0.2-1-0.6-1.9c0,0,0,0,0,0c-0.5-0.5-1.3-1-2.2-1.4c-0.2-0.1-0.3-0.1-0.5-0.2v0
		c0-0.7-0.6-1.3-1.3-1.3l-3.4,0c-0.5,0-0.9,0.2-1.2,0.5l-5.7,5.7c-0.5,0.5-0.5,1.2,0,1.7L11.4,21.6z M15.8,12c0.4-0.4,1-0.4,1.4,0
		c0.2,0.2,0.3,0.5,0.3,0.8c0.4,0.3,0.8,0.5,1.3,0.7c0.2,0.1,0.3,0.1,0.5,0.2l0-1.4c0,0,0.1,0,0.1,0c0.7,0.3,1.4,0.7,1.9,1.2
		c0,0,0,0,0,0c0.4,0.4,0.5,0.7,0.4,0.8c-0.1,0.3-1.3,0.5-3-0.2c-0.5-0.2-1-0.5-1.4-0.8c0,0,0,0,0,0c-0.4,0.4-1,0.4-1.4,0
		C15.4,13,15.4,12.3,15.8,12z"/>
</g>
</svg>
