<?xml version="1.0" encoding="utf-8"?>
<!-- Generator: Adobe Illustrator 23.0.2, SVG Export Plug-In . SVG Version: 6.00 Build 0)  -->
<svg version="1.1" id="Layer_1" xmlns="http://www.w3.org/2000/svg" xmlns:xlink="http://www.w3.org/1999/xlink" x="0px" y="0px"
	 viewBox="0 0 29.9 29.9" style="enable-background:new 0 0 29.9 29.9;" xml:space="preserve">
<g>
	<circle style="fill:#0AF2A5;" cx="14.9" cy="14.9" r="14.9"/>
	<path style="fill:#5430CE;" d="M25.5,4.4c5.8,5.8,5.8,15.3,0,21.1s-15.3,5.8-21.1,0"/>
</g>
<g>
	<path style="fill:#FFFFFF;" d="M14,16.1h-2.8c-0.1,0-0.2,0.1-0.2,0.2v4.3c0,0.1,0.1,0.2,0.2,0.2H14c0.1,0,0.2-0.1,0.2-0.2v-4.3
		C14.2,16.2,14.1,16.1,14,16.1z"/>
	<path style="fill:#FFFFFF;" d="M18.9,11.8c-0.1,0.1-0.2,0.1-0.3,0.1c-0.2,0-0.3-0.1-0.5-0.2l-0.5-0.4l-1.8,2v7.4
		c0,0.1,0.1,0.2,0.2,0.2h2.8c0.1,0,0.2-0.1,0.2-0.2L18.9,11.8C18.9,11.8,18.9,11.8,18.9,11.8z"/>
	<path style="fill:#FFFFFF;" d="M18.7,11.3c0.1,0,0.1-0.1,0.1-0.2l-0.2-2.4c0-0.1-0.1-0.1-0.2-0.1L16,8.8c-0.1,0-0.1,0-0.1,0.1
		c0,0,0,0,0,0.1c0,0,0,0.1,0.1,0.1l1,0.8l-4,4.4l-1.5-0.5l0,0c-0.7,0.2-0.3,0.8-0.3,0.8l0,0l1.8,0.7c0.2,0.1,0.3,0,0.4-0.1l4.2-4.6
		l1,0.8C18.6,11.3,18.7,11.3,18.7,11.3z"/>
</g>
</svg>
