<?xml version="1.0" encoding="utf-8"?>
<!-- Generator: Adobe Illustrator 23.0.2, SVG Export Plug-In . SVG Version: 6.00 Build 0)  -->
<svg version="1.1" id="Layer_1" xmlns="http://www.w3.org/2000/svg" xmlns:xlink="http://www.w3.org/1999/xlink" x="0px" y="0px"
	 viewBox="0 0 30 30" style="enable-background:new 0 0 30 30;" xml:space="preserve">
<circle style="fill:#0AF2A5;" cx="15" cy="15" r="15"/>
<g>
	<g>
		<path style="fill:#FFFFFF;" d="M20.6,22.6H10.1c-0.8,0-1.5-0.7-1.5-1.5V10c0-0.8,0.7-1.5,1.5-1.5h10.5c0.8,0,1.5,0.7,1.5,1.5v11.1
			C22.1,21.9,21.5,22.6,20.6,22.6z M10.1,9.1c-0.5,0-0.8,0.4-0.8,0.8v11.1c0,0.5,0.4,0.8,0.8,0.8h10.5c0.5,0,0.8-0.4,0.8-0.8V10
			c0-0.5-0.4-0.8-0.8-0.8H10.1z"/>
	</g>
	<g>
		<g>
			<rect x="11.2" y="11.2" style="fill:#FFFFFF;" width="8.4" height="0.6"/>
			<rect x="11.2" y="13.9" style="fill:#FFFFFF;" width="8.4" height="0.6"/>
			<rect x="11.2" y="16.6" style="fill:#FFFFFF;" width="8.4" height="0.6"/>
		</g>
		<rect x="11.2" y="19.3" style="fill:#FFFFFF;" width="8.4" height="0.6"/>
	</g>
</g>
</svg>
