<?xml version="1.0" encoding="utf-8"?>
<!-- Generator: Adobe Illustrator 23.0.2, SVG Export Plug-In . SVG Version: 6.00 Build 0)  -->
<svg version="1.1" id="Layer_1" xmlns="http://www.w3.org/2000/svg" xmlns:xlink="http://www.w3.org/1999/xlink" x="0px" y="0px"
	 viewBox="0 0 30 30" style="enable-background:new 0 0 30 30;" xml:space="preserve">
<g>
	<circle style="fill:#0AF2A5;" cx="15" cy="15" r="15"/>
	<g>
		<path style="fill:#FFFFFF;" d="M23.7,9.3H10.9c-0.1,0-0.2,0.1-0.2,0.2v10c0,0.1,0.1,0.2,0.2,0.2h12.8c0.1,0,0.2-0.1,0.2-0.2v-10
			C23.9,9.4,23.8,9.3,23.7,9.3z M22.7,18l-2.9-3c0,0-0.1,0-0.1,0l-2,1.8l-2.5-3.1c0,0,0,0-0.1,0c0,0-0.1,0-0.1,0l-3,4v-7.2h10.7
			L22.7,18L22.7,18z"/>
		<path style="fill:#FFFFFF;" d="M19.5,13.6c0.6,0,1-0.5,1-1c0-0.6-0.5-1-1-1c-0.6,0-1,0.5-1,1C18.5,13.1,18.9,13.6,19.5,13.6z"/>
	</g>
	<g>
		<path style="fill:#FFFFFF;" d="M9.9,9.7H6.3c0,0-0.1,0-0.1,0.1v2.8c0,0,0,0.1,0.1,0.1h3.5c0,0,0.1,0,0.1-0.1L9.9,9.7
			C9.9,9.7,9.9,9.7,9.9,9.7z M9.6,12.1l-0.8-0.8c0,0,0,0,0,0l-0.6,0.5l-0.7-0.9c0,0,0,0,0,0c0,0,0,0,0,0L6.6,12v-2h3L9.6,12.1
			L9.6,12.1z"/>
		<path style="fill:#FFFFFF;" d="M8.7,10.8c0.2,0,0.3-0.1,0.3-0.3c0-0.2-0.1-0.3-0.3-0.3c-0.2,0-0.3,0.1-0.3,0.3
			C8.4,10.7,8.6,10.8,8.7,10.8z"/>
	</g>
	<g>
		<path style="fill:#FFFFFF;" d="M9.9,13.2H6.3c0,0-0.1,0-0.1,0.1v2.8c0,0,0,0.1,0.1,0.1h3.5c0,0,0.1,0,0.1-0.1L9.9,13.2
			C9.9,13.3,9.9,13.2,9.9,13.2z M9.6,15.7l-0.8-0.8c0,0,0,0,0,0l-0.6,0.5l-0.7-0.9c0,0,0,0,0,0c0,0,0,0,0,0l-0.8,1.1v-2h3V15.7
			L9.6,15.7z"/>
		<path style="fill:#FFFFFF;" d="M8.7,14.4c0.2,0,0.3-0.1,0.3-0.3c0-0.2-0.1-0.3-0.3-0.3c-0.2,0-0.3,0.1-0.3,0.3
			C8.4,14.3,8.6,14.4,8.7,14.4z"/>
	</g>
	<g>
		<path style="fill:#FFFFFF;" d="M9.9,16.8H6.3c0,0-0.1,0-0.1,0.1v2.8c0,0,0,0.1,0.1,0.1h3.5c0,0,0.1,0,0.1-0.1L9.9,16.8
			C9.9,16.8,9.9,16.8,9.9,16.8z M9.6,19.2l-0.8-0.8c0,0,0,0,0,0l-0.6,0.5L7.5,18c0,0,0,0,0,0c0,0,0,0,0,0l-0.8,1.1v-2h3L9.6,19.2
			L9.6,19.2z"/>
		<path style="fill:#FFFFFF;" d="M8.7,18C8.9,18,9,17.9,9,17.7c0-0.2-0.1-0.3-0.3-0.3c-0.2,0-0.3,0.1-0.3,0.3
			C8.4,17.9,8.6,18,8.7,18z"/>
	</g>
</g>
</svg>
