<?xml version="1.0" encoding="utf-8"?>
<!-- Generator: Adobe Illustrator 23.0.2, SVG Export Plug-In . SVG Version: 6.00 Build 0)  -->
<svg version="1.1" id="Layer_1" xmlns="http://www.w3.org/2000/svg" xmlns:xlink="http://www.w3.org/1999/xlink" x="0px" y="0px"
	 viewBox="0 0 30 30" style="enable-background:new 0 0 30 30;" xml:space="preserve">
<circle style="fill:#0AF2A5;" cx="15" cy="15" r="15"/>
<g>
	<path style="fill:#FFFFFF;" d="M14.3,12.1H7.2c-0.1,0-0.1,0.1-0.1,0.1v5.6c0,0.1,0.1,0.1,0.1,0.1h7.1c0.1,0,0.1-0.1,0.1-0.1v-5.6
		C14.4,12.1,14.4,12.1,14.3,12.1z M13.7,17l-1.6-1.7c0,0,0,0-0.1,0l-1.1,1l-1.4-1.8c0,0,0,0,0,0c0,0,0,0,0,0l-1.7,2.3v-4h6L13.7,17
		L13.7,17z"/>
	<path style="fill:#FFFFFF;" d="M12,14.5c0.3,0,0.6-0.3,0.6-0.6c0-0.3-0.3-0.6-0.6-0.6c-0.3,0-0.6,0.3-0.6,0.6
		C11.4,14.2,11.7,14.5,12,14.5z"/>
</g>
<g>
	<path style="fill:#FFFFFF;" d="M22.7,12.1h-7.1c-0.1,0-0.1,0.1-0.1,0.1v5.6c0,0.1,0.1,0.1,0.1,0.1h7.1c0.1,0,0.1-0.1,0.1-0.1v-5.6
		C22.8,12.1,22.7,12.1,22.7,12.1z M22.1,17l-1.6-1.7c0,0,0,0-0.1,0l-1.1,1l-1.4-1.8c0,0,0,0,0,0c0,0,0,0,0,0l-1.7,2.3v-4h6L22.1,17
		L22.1,17z"/>
	<path style="fill:#FFFFFF;" d="M20.3,14.5c0.3,0,0.6-0.3,0.6-0.6c0-0.3-0.3-0.6-0.6-0.6c-0.3,0-0.6,0.3-0.6,0.6
		C19.7,14.2,20,14.5,20.3,14.5z"/>
</g>
<path style="fill:#FFFFFF;" d="M23.6,17v-1l2-1l-2-1v-1l2.9,1.6v0.9L23.6,17z"/>
<path style="fill:#FFFFFF;" d="M6.4,13v1l-2,1l2,1v1l-2.9-1.6v-0.9L6.4,13z"/>
</svg>
