<?xml version="1.0" encoding="utf-8"?>
<!-- Generator: Adobe Illustrator 23.0.2, SVG Export Plug-In . SVG Version: 6.00 Build 0)  -->
<svg version="1.1" id="Layer_1" xmlns="http://www.w3.org/2000/svg" xmlns:xlink="http://www.w3.org/1999/xlink" x="0px" y="0px"
	 viewBox="0 0 30 30" style="enable-background:new 0 0 30 30;" xml:space="preserve">
<circle style="fill:#0AF2A5;" cx="15" cy="15" r="15"/>
<path style="fill:#FFFFFF;" d="M11.8,7.8l0.9,1.8c0.1,0.1,0.2,0.2,0.3,0.2l2,0.3c0.4,0.1,0.5,0.5,0.2,0.7l-1.5,1.4
	c-0.1,0.1-0.1,0.2-0.1,0.4l0.3,2c0.1,0.4-0.3,0.6-0.6,0.5l-1.8-1c-0.1-0.1-0.3-0.1-0.4,0l-1.8,1c-0.3,0.2-0.7-0.1-0.6-0.5l0.3-2
	c0-0.1,0-0.3-0.1-0.4l-1.5-1.4c-0.3-0.3-0.1-0.7,0.2-0.7l2-0.3c0.1,0,0.3-0.1,0.3-0.2L11,7.8C11.1,7.5,11.6,7.5,11.8,7.8z"/>
<g>
	<path style="fill:#FFFFFF;" d="M18.5,12.3l2.7,2.7l-6.8,6.8l-2.7-2.7L18.5,12.3z M23.2,11.7L22,10.5c-0.5-0.5-1.2-0.5-1.7,0
		l-1.2,1.2l2.7,2.7l1.3-1.3C23.6,12.6,23.6,12.1,23.2,11.7z M10.2,23c0,0.2,0.2,0.4,0.4,0.4l3-0.7l-2.7-2.7L10.2,23z"/>
</g>
</svg>
