<?xml version="1.0" encoding="utf-8"?>
<!-- Generator: Adobe Illustrator 23.0.2, SVG Export Plug-In . SVG Version: 6.00 Build 0)  -->
<svg version="1.1" id="Layer_1" xmlns="http://www.w3.org/2000/svg" xmlns:xlink="http://www.w3.org/1999/xlink" x="0px" y="0px"
	 viewBox="0 0 30 30" style="enable-background:new 0 0 30 30;" xml:space="preserve">
<circle style="fill:#0AF2A5;" cx="15" cy="15" r="15"/>
<g>
	<g>
		<path style="fill:#FFFFFF;" d="M19.4,17.4c-0.9,0-1.7,0.4-2.2,1.1l-4.7-2.4c0.1-0.2,0.1-0.5,0.1-0.7c0-0.3-0.1-0.5-0.1-0.8
			l4.7-2.4c0.5,0.7,1.3,1.1,2.2,1.1c1.5,0,2.8-1.2,2.8-2.8c0-1.5-1.2-2.8-2.8-2.8c-1.5,0-2.8,1.2-2.8,2.8c0,0.3,0,0.5,0.1,0.7
			l-4.7,2.4c-0.5-0.6-1.3-1.1-2.2-1.1c-1.5,0-2.8,1.3-2.8,2.8s1.2,2.8,2.8,2.8c0.9,0,1.7-0.4,2.2-1.1l4.7,2.4
			c-0.1,0.3-0.1,0.5-0.1,0.8c0,1.5,1.3,2.8,2.8,2.8c1.5,0,2.8-1.2,2.8-2.8C22.1,18.7,20.9,17.4,19.4,17.4z"/>
	</g>
</g>
</svg>
