<?xml version="1.0" encoding="utf-8"?>
<!-- Generator: Adobe Illustrator 23.0.2, SVG Export Plug-In . SVG Version: 6.00 Build 0)  -->
<svg version="1.1" id="Layer_1" xmlns="http://www.w3.org/2000/svg" xmlns:xlink="http://www.w3.org/1999/xlink" x="0px" y="0px"
	 viewBox="0 0 30 30" style="enable-background:new 0 0 30 30;" xml:space="preserve">
<circle style="fill:#31F2F7;" cx="15" cy="15" r="15"/>
<g>
	<path style="fill:#FFFFFF;" d="M11.9,13.4c1.4,0,2.5-1.4,2.5-3s-0.4-3-2.5-3s-2.5,1.4-2.5,3S10.5,13.4,11.9,13.4z"/>
	<path style="fill:#FFFFFF;" d="M16.6,18.1C16.6,18.1,16.6,17.9,16.6,18.1L16.6,18.1z"/>
	<path style="fill:#FFFFFF;" d="M11.9,14.8h4c-0.5-0.6-1.3-0.9-2.7-1.2c0,0-0.4,0.5-1.4,0.5s-1.4-0.5-1.4-0.5
		c-2.9,0.5-3.3,1.3-3.3,4.2c0,0.2,0,0.2,0,0.2c0,0.1,0,0.1,0,0.3c0,0,0.7,1.4,4.7,1.4c1.8,0,3-0.3,3.7-0.6h-3.7v-0.8h4.7l0,0
		c0-0.1,0-0.2,0-0.2c0,0,0,0,0-0.2c0-1-0.1-1.7-0.3-2.3h-4.4V14.8z"/>
	<path style="fill:#FFFFFF;" d="M22.8,14.8h-6.9c0.2,0.2,0.3,0.5,0.4,0.8h6.5V14.8z"/>
	<path style="fill:#FFFFFF;" d="M15.6,19.1h7.2v-0.8h-6.2C16.6,18.3,16.4,18.7,15.6,19.1z"/>
	<rect x="11.9" y="21.8" style="fill:#FFFFFF;" width="10.9" height="0.8"/>
</g>
</svg>
