<?xml version="1.0" encoding="utf-8"?>
<!-- Generator: Adobe Illustrator 23.0.2, SVG Export Plug-In . SVG Version: 6.00 Build 0)  -->
<svg version="1.1" id="Layer_1" xmlns="http://www.w3.org/2000/svg" xmlns:xlink="http://www.w3.org/1999/xlink" x="0px" y="0px"
	 viewBox="0 0 30 30" style="enable-background:new 0 0 30 30;" xml:space="preserve">
<circle style="fill:#31F2F7;" cx="15" cy="15" r="15"/>
<path style="fill:#F1F5F9;" d="M20.4,15.2h-1.7V9.6c0-0.1-0.1-0.2-0.1-0.2c-0.1,0-0.2,0-0.3,0.1l-0.7,0.7l-0.7-0.7
	c-0.1-0.1-0.2-0.1-0.3,0l-0.7,0.7l-0.7-0.7c-0.1-0.1-0.2-0.1-0.3,0l-0.7,0.7l-0.7-0.7c-0.1-0.1-0.2-0.1-0.3,0l-0.7,0.7l-0.7-0.7
	c-0.1-0.1-0.2-0.1-0.3,0l-0.7,0.7l-0.7-0.7c-0.1-0.1-0.2-0.1-0.3,0c0,0-0.1,0.1-0.1,0.2v10.6c0,0.7,0.6,1.2,1.2,1.2h8.4l0,0
	c0,0,0,0,0,0c0.7,0,1.2-0.6,1.2-1.2v-4.8C20.7,15.3,20.6,15.2,20.4,15.2z M17.4,20.4h-6.2v-0.4h6.2V20.4z M17.4,18.4h-6.2v-0.4h6.2
	V18.4z M17.4,16.4h-6.2v-0.4h6.2V16.4z M17.4,14.4h-6.2V14h6.2V14.4z M17.4,12.4h-6.2V12h6.2V12.4z M20.2,20.3
	c0,0.4-0.3,0.8-0.8,0.8c-0.4,0-0.8-0.3-0.8-0.8v-4.6h1.5V20.3z"/>
</svg>
