<?xml version="1.0" encoding="utf-8"?>
<!-- Generator: Adobe Illustrator 23.0.2, SVG Export Plug-In . SVG Version: 6.00 Build 0)  -->
<svg version="1.1" id="Layer_1" xmlns="http://www.w3.org/2000/svg" xmlns:xlink="http://www.w3.org/1999/xlink" x="0px" y="0px"
	 viewBox="0 0 30 30" style="enable-background:new 0 0 30 30;" xml:space="preserve">
<circle style="fill:#31F2F7;" cx="15" cy="15" r="15"/>
<g>
	<g>
		<path style="fill:#FFFFFF;" d="M11.6,15.9c0.4,0,0.8,0,1.2-0.1v-4.1c-0.4,0-0.8-0.1-1.2-0.1c-2.3,0-4.2,0.8-4.2,1.9V14
			C7.4,15.1,9.3,15.9,11.6,15.9z"/>
		<path style="fill:#FFFFFF;" d="M11.6,18c0.4,0,0.8,0,1.2-0.1v-1.2c-0.4,0-0.8,0.1-1.2,0.1c-2,0-3.7-0.6-4.1-1.5
			c-0.1,0.1-0.1,0.3-0.1,0.4v0.4C7.4,17.2,9.3,18,11.6,18z"/>
		<path style="fill:#FFFFFF;" d="M12.8,19L12.8,19c-0.4,0-0.8,0-1.2,0c-2,0-3.7-0.6-4.1-1.5c-0.1,0.1-0.1,0.3-0.1,0.4v0.4
			c0,1,1.9,1.9,4.2,1.9c0.5,0,0.9,0,1.3-0.1c-0.1-0.2-0.2-0.4-0.2-0.7V19z"/>
		<path style="fill:#FFFFFF;" d="M17.6,8.5c-2.3,0-4.2,0.8-4.2,1.9v0.4c0,1,1.9,1.9,4.2,1.9c2.3,0,4.2-0.8,4.2-1.9v-0.4
			C21.8,9.4,20,8.5,17.6,8.5z"/>
		<path style="fill:#FFFFFF;" d="M17.6,13.6c-2,0-3.7-0.6-4.1-1.5c-0.1,0.1-0.1,0.3-0.1,0.4v0.4c0,1,1.9,1.9,4.2,1.9
			c2.3,0,4.2-0.8,4.2-1.9v-0.4c0-0.1,0-0.3-0.1-0.4C21.3,13,19.7,13.6,17.6,13.6z"/>
		<path style="fill:#FFFFFF;" d="M17.6,15.8c-2,0-3.7-0.6-4.1-1.5c-0.1,0.1-0.1,0.3-0.1,0.4v0.4c0,1,1.9,1.9,4.2,1.9
			c2.3,0,4.2-0.8,4.2-1.9v-0.4c0-0.1,0-0.3-0.1-0.4C21.3,15.1,19.7,15.8,17.6,15.8z"/>
		<path style="fill:#FFFFFF;" d="M17.6,18c-2,0-3.7-0.6-4.1-1.5c-0.1,0.1-0.1,0.3-0.1,0.4v0.4c0,1,1.9,1.9,4.2,1.9
			c2.3,0,4.2-0.8,4.2-1.9v-0.4c0-0.1,0-0.3-0.1-0.4C21.3,17.3,19.7,18,17.6,18z"/>
		<path style="fill:#FFFFFF;" d="M17.6,20.1c-2,0-3.7-0.6-4.1-1.5c-0.1,0.1-0.1,0.3-0.1,0.4v0.4c0,1,1.9,1.9,4.2,1.9
			c2.3,0,4.2-0.8,4.2-1.9V19c0-0.1,0-0.3-0.1-0.4C21.3,19.5,19.7,20.1,17.6,20.1z"/>
	</g>
</g>
</svg>
